Newsreader72pt-Bold.ufo
<glyph name="parenleft" format="2">
  <advance width="571.384"/>
  <unicode hex="0028"/>
  <outline>
    <contour>
      <point x="279.008" y="630.2560000000001" type="curve" smooth="yes"/>
      <point x="279.008" y="933.104"/>
      <point x="331.584" y="1138.0720000000001"/>
      <point x="528.048" y="1471.888" type="curve"/>
      <point x="496.864" y="1490.48" type="line"/>
      <point x="136.54399999999998" y="1051.896"/>
      <point x="64.8" y="890.336"/>
      <point x="64.8" y="630.2560000000001" type="curve" smooth="yes"/>
      <point x="64.8" y="370.17600000000004"/>
      <point x="136.54399999999998" y="208.264"/>
      <point x="496.864" y="-230.31999999999996" type="curve"/>
      <point x="528.048" y="-211.72799999999998" type="line"/>
      <point x="331.584" y="122.08800000000001"/>
      <point x="279.008" y="328.05600000000004"/>
    </contour>
  </outline>
</glyph>
<glyph name="zero" format="2">
  <advance width="1329.6"/>
  <unicode hex="0030"/>
  <outline>
    <contour>
      <point x="666.856" y="43.496" type="curve" smooth="yes"/>
      <point x="530.597978021978" y="43.496"/>
      <point x="453.0160000000001" y="246.992"/>
      <point x="453.0160000000001" y="759.96" type="curve" smooth="yes"/>
      <point x="453.0160000000001" y="1203.416"/>
      <point x="530.5242247191012" y="1386.504"/>
      <point x="663.3919999999999" y="1386.504" type="curve" smooth="yes"/>
      <point x="799.650021978022" y="1386.504"/>
      <point x="877.232" y="1183.008"/>
      <point x="877.232" y="670.04" type="curve" smooth="yes"/>
      <point x="877.232" y="226.584"/>
      <point x="799.7237752808988" y="43.496"/>
    </contour>
    <contour>
      <point x="676.2239999999999" y="1456.48" type="curve" smooth="yes"/>
      <point x="323.6523185840708" y="1456.48"/>
      <point x="70.872" y="1156.184"/>
      <point x="70.872" y="714.944" type="curve" smooth="yes"/>
      <point x="70.872" y="273.05600000000004"/>
      <point x="300.24592486583185" y="-26.48"/>
      <point x="654.024" y="-26.48" type="curve" smooth="yes"/>
      <point x="1006.5956814159292" y="-26.48"/>
      <point x="1259.376" y="273.81600000000003"/>
      <point x="1259.376" y="715.056" type="curve" smooth="yes"/>
      <point x="1259.376" y="1156.9440000000002"/>
      <point x="1030.0020751341683" y="1456.48"/>
    </contour>
  </outline>
</glyph>
<glyph name="semicolon" format="2">
  <advance width="587.9359999999999"/>
  <unicode hex="003B"/>
  <outline>
    <contour>
      <point x="103.56" y="-304.424" type="curve"/>
      <point x="135.688" y="-338.49600000000004" type="line"/>
      <point x="391.59999999999997" y="-188.296"/>
      <point x="481.504" y="-19.544000000000004"/>
      <point x="481.504" y="138.136" type="curve" smooth="yes"/>
      <point x="481.504" y="264.168"/>
      <point x="403.064" y="343.552"/>
      <point x="291.552" y="343.552" type="curve" smooth="yes"/>
      <point x="179.68800000000002" y="343.552"/>
      <point x="103.008" y="272.76"/>
      <point x="103.008" y="168.192" type="curve" smooth="yes"/>
      <point x="103.008" y="134.136"/>
      <point x="274.52000000000004" y="76.976"/>
      <point x="274.52000000000004" y="-49.24" type="curve" smooth="yes"/>
      <point x="274.52000000000004" y="-151.016"/>
      <point x="219.872" y="-226.608"/>
    </contour>
    <contour>
      <point x="290.848" y="1046.24" type="curve" smooth="yes"/>
      <point x="179.68800000000002" y="1046.24"/>
      <point x="101.248" y="965.8"/>
      <point x="101.248" y="861.232" type="curve" smooth="yes"/>
      <point x="101.248" y="756.6640000000001"/>
      <point x="179.68800000000002" y="676.224"/>
      <point x="290.848" y="676.224" type="curve" smooth="yes"/>
      <point x="402.00800000000004" y="676.224"/>
      <point x="480.448" y="756.6640000000001"/>
      <point x="480.448" y="861.232" type="curve" smooth="yes"/>
      <point x="480.448" y="965.8"/>
      <point x="402.00800000000004" y="1046.24"/>
    </contour>
  </outline>
</glyph>
<glyph name="less" format="2">
  <advance width="1150.0"/>
  <unicode hex="003C"/>
  <outline>
    <contour>
      <point x="165.06400000000002" y="480.67199999999997" type="line"/>
      <point x="981.0" y="368.79200000000003" type="line"/>
      <point x="981.0" y="460.58399999999995" type="line"/>
      <point x="205.912" y="532.04" type="line"/>
      <point x="205.912" y="495.848" type="line"/>
      <point x="981.0" y="563.4159999999999" type="line"/>
      <point x="981.0" y="655.208" type="line"/>
      <point x="165.06400000000002" y="545.44" type="line"/>
    </contour>
  </outline>
</glyph>
<glyph name="greater" format="2">
  <advance width="1150.0"/>
  <unicode hex="003E"/>
  <outline>
    <contour>
      <point x="984.936" y="480.67199999999997" type="line"/>
      <point x="984.936" y="545.44" type="line"/>
      <point x="169.0" y="655.208" type="line"/>
      <point x="169.0" y="563.4159999999999" type="line"/>
      <point x="944.0880000000001" y="495.848" type="line"/>
      <point x="944.0880000000001" y="532.04" type="line"/>
      <point x="169.0" y="460.58399999999995" type="line"/>
      <point x="169.0" y="368.79200000000003" type="line"/>
    </contour>
  </outline>
</glyph>
<glyph name="question" format="2">
  <advance width="1017.3199999999999"/>
  <unicode hex="003F"/>
  <outline>
    <contour>
      <point x="343.608" y="1456.48" type="curve" smooth="yes"/>
      <point x="132.40800000000002" y="1456.48"/>
      <point x="51.464" y="1388.352"/>
      <point x="51.464" y="1300.2079999999999" type="curve" smooth="yes"/>
      <point x="51.464" y="1227.416"/>
      <point x="120.848" y="1165.328"/>
      <point x="176.16" y="1165.328" type="curve" smooth="yes"/>
      <point x="209.528" y="1165.328"/>
      <point x="348.576" y="1354.336"/>
      <point x="546.0559999999999" y="1354.336" type="curve" smooth="yes"/>
      <point x="684.64" y="1354.336"/>
      <point x="758.7040000000001" y="1283.424"/>
      <point x="758.7040000000001" y="1152.432" type="curve" smooth="yes"/>
      <point x="758.7040000000001" y="1018.648"/>
      <point x="682.848" y="930.792"/>
      <point x="328.24" y="935.016" type="curve"/>
      <point x="429.752" y="521.3199999999999" type="line"/>
      <point x="471.472" y="521.3199999999999" type="line"/>
      <point x="471.472" y="850.656" type="line"/>
      <point x="436.584" y="677.168" type="line"/>
      <point x="807.248" y="662.52"/>
      <point x="933.024" y="764.08"/>
      <point x="933.024" y="1006.76" type="curve" smooth="yes"/>
      <point x="933.024" y="1252.4479999999999"/>
      <point x="712.24" y="1456.48"/>
    </contour>
    <contour>
      <point x="452.34400000000005" y="347.776" type="curve" smooth="yes"/>
      <point x="341.18399999999997" y="347.776"/>
      <point x="262.744" y="267.336"/>
      <point x="262.744" y="162.768" type="curve" smooth="yes"/>
      <point x="262.744" y="58.199999999999996"/>
      <point x="341.18399999999997" y="-22.240000000000002"/>
      <point x="452.34400000000005" y="-22.240000000000002" type="curve" smooth="yes"/>
      <point x="563.5039999999999" y="-22.240000000000002"/>
      <point x="641.944" y="58.199999999999996"/>
      <point x="641.944" y="162.768" type="curve" smooth="yes"/>
      <point x="641.944" y="267.336"/>
      <point x="563.5039999999999" y="347.776"/>
    </contour>
  </outline>
</glyph>
<glyph name="at" format="2">
  <advance width="1814.96"/>
  <unicode hex="0040"/>
  <outline>
    <contour>
      <point x="1262.112" y="239.112" type="curve" smooth="yes"/>
      <point x="1569.904" y="239.112"/>
      <point x="1780.864" y="486.57599999999996"/>
      <point x="1780.864" y="813.76" type="curve" smooth="yes"/>
      <point x="1780.864" y="1182.24"/>
      <point x="1487.808" y="1457.8880000000001"/>
      <point x="1017.776" y="1457.8880000000001" type="curve" smooth="yes"/>
      <point x="460.504" y="1457.8880000000001"/>
      <point x="66.744" y="1053.5919999999999"/>
      <point x="66.744" y="535.9440000000001" type="curve" smooth="yes"/>
      <point x="66.744" y="55.832"/>
      <point x="420.79999999999995" y="-218.0"/>
      <point x="922.888" y="-218.0" type="curve" smooth="yes"/>
      <point x="1176.568" y="-218.0"/>
      <point x="1397.904" y="-145.648"/>
      <point x="1578.68" y="-24.648000000000003" type="curve"/>
      <point x="1555.552" y="12.072" type="line"/>
      <point x="1355.7759999999998" y="-111.92800000000001"/>
      <point x="1142.44" y="-157.688"/>
      <point x="951.184" y="-157.688" type="curve" smooth="yes"/>
      <point x="512.312" y="-157.688"/>
      <point x="220.624" y="110.49600000000001"/>
      <point x="220.624" y="548.5360000000001" type="curve" smooth="yes"/>
      <point x="220.624" y="1045.1680000000001"/>
      <point x="530.72" y="1402.576"/>
      <point x="1008.888" y="1402.576" type="curve" smooth="yes"/>
      <point x="1412.4959999999999" y="1402.576"/>
      <point x="1647.28" y="1131.872"/>
      <point x="1647.28" y="797.888" type="curve" smooth="yes"/>
      <point x="1647.28" y="468.648"/>
      <point x="1468.224" y="287.072"/>
      <point x="1331.624" y="287.072" type="curve" smooth="yes"/>
      <point x="1284.4160000000002" y="287.072"/>
      <point x="1256.9679999999998" y="314.352"/>
      <point x="1256.9679999999998" y="379.024" type="curve" smooth="yes"/>
      <point x="1256.9679999999998" y="415.192"/>
      <point x="1264.672" y="462.712"/>
      <point x="1281.784" y="523.584" type="curve" smooth="yes"/>
      <point x="1422.4879999999998" y="1039.0" type="line"/>
      <point x="1158.6000000000001" y="1039.0" type="line"/>
      <point x="1131.952" y="944.928" type="line"/>
      <point x="1034.08" y="627.9440000000001" type="line" smooth="yes"/>
      <point x="951.6800000000001" y="475.08000000000004"/>
      <point x="883.992" y="423.264"/>
      <point x="829.304" y="423.264" type="curve" smooth="yes"/>
      <point x="791.5600000000001" y="423.264"/>
      <point x="777.688" y="443.65599999999995"/>
      <point x="777.688" y="504.4" type="curve" smooth="yes"/>
      <point x="777.688" y="664.48"/>
      <point x="922.232" y="960.6"/>
      <point x="1056.648" y="960.6" type="curve" smooth="yes"/>
      <point x="1114.648" y="960.6"/>
      <point x="1142.632" y="925.176"/>
      <point x="1173.856" y="843.4" type="curve"/>
      <point x="1188.448" y="867.2320000000001" type="line"/>
      <point x="1149.392" y="1001.984"/>
      <point x="1060.544" y="1060.5919999999999"/>
      <point x="977.656" y="1060.5919999999999" type="curve" smooth="yes"/>
      <point x="734.712" y="1060.5919999999999"/>
      <point x="494.96799999999996" y="693.648"/>
      <point x="494.96799999999996" y="435.944" type="curve" smooth="yes"/>
      <point x="494.96799999999996" y="302.632"/>
      <point x="550.448" y="239.11200000000002"/>
      <point x="666.912" y="239.11200000000002" type="curve" smooth="yes"/>
      <point x="779.6320000000001" y="239.11200000000002"/>
      <point x="895.3359999999999" y="297.15200000000004"/>
      <point x="1074.04" y="631.312" type="curve"/>
      <point x="1049.1519999999998" y="635.2560000000001" type="line"/>
      <point x="1027.2079999999999" y="530.704" type="line" smooth="yes"/>
      <point x="1020.208" y="498.05600000000004"/>
      <point x="1016.504" y="467.704"/>
      <point x="1016.504" y="440.704" type="curve" smooth="yes"/>
      <point x="1016.504" y="301.632"/>
      <point x="1107.6319999999998" y="239.112"/>
    </contour>
  </outline>
</glyph>
<glyph name="C" format="2">
  <advance width="1456.5279999999998"/>
  <unicode hex="0043"/>
  <anchor x="818.736" y="1430.0" name="UCtop"/>
  <anchor x="818.736" y="0.0" name="bottom"/>
  <anchor x="1315.744" y="0.0" name="right"/>
  <outline>
    <contour>
      <point x="961.592" y="39.976" type="curve" smooth="yes"/>
      <point x="702.3040000000001" y="39.976"/>
      <point x="485.904" y="337.08799999999997"/>
      <point x="485.904" y="786.232" type="curve" smooth="yes"/>
      <point x="485.904" y="1233.28"/>
      <point x="650.568" y="1383.9119999999998"/>
      <point x="868.9839999999999" y="1383.9119999999998" type="curve" smooth="yes"/>
      <point x="974.2202253521126" y="1383.9119999999998"/>
      <point x="1065.6444884913324" y="1352.4826008432174"/>
      <point x="1183.936" y="1237.696" type="curve"/>
      <point x="1106.3519999999999" y="1332.184" type="line"/>
      <point x="1353.192" y="947.2879999999999" type="line"/>
      <point x="1385.9679999999998" y="956.768" type="line"/>
      <point x="1279.768" y="1500.848" type="line"/>
      <point x="1264.472" y="1500.848" type="line"/>
      <point x="1118.5359999999998" y="1394.1119999999999" type="line"/>
      <point x="1207.1760000000002" y="1419.0720000000001" type="line"/>
      <point x="1088.1789025407243" y="1445.7570553723829"/>
      <point x="1005.2118819672131" y="1456.48"/>
      <point x="887.7679999999999" y="1456.48" type="curve" smooth="yes"/>
      <point x="401.704" y="1456.48"/>
      <point x="73.56" y="1160.5919999999999"/>
      <point x="73.56" y="728.352" type="curve" smooth="yes"/>
      <point x="73.56" y="230.94400000000002"/>
      <point x="401.176" y="-26.48"/>
      <point x="893.9599999999999" y="-26.48" type="curve" smooth="yes"/>
      <point x="1052.4042913907283" y="-26.48"/>
      <point x="1173.9907987023564" y="-12.288389343286838"/>
      <point x="1316.712" y="24.984" type="curve"/>
      <point x="1402.488" y="420.808" type="line"/>
      <point x="1368.416" y="420.808" type="line"/>
      <point x="1138.336" y="74.192" type="line"/>
      <point x="1189.648" y="118.24799999999999" type="line"/>
      <point x="1120.6087573907785" y="64.71492762509443"/>
      <point x="1044.9406122448981" y="39.976"/>
    </contour>
  </outline>
</glyph>
<glyph name="E" format="2">
  <advance width="1464.12"/>
  <unicode hex="0045"/>
  <anchor x="719.1039999999999" y="1430.0" name="UCtop"/>
  <anchor x="1258.472" y="0.0" name="right"/>
  <anchor x="732.064" y="0.0" name="bottom"/>
  <outline>
    <contour>
      <point x="1036.808" y="1064.92" type="line"/>
      <point x="1008.328" y="1064.92" type="line"/>
      <point x="879.184" y="801.552" type="line"/>
      <point x="503.216" y="775.496" type="line"/>
      <point x="503.216" y="718.152" type="line"/>
      <point x="879.184" y="694.8000000000001" type="line"/>
      <point x="1008.328" y="429.08" type="line"/>
      <point x="1036.808" y="429.08" type="line"/>
      <point x="989.8480000000001" y="746.0" type="line"/>
    </contour>
    <contour>
      <point x="1365.6" y="993.8799999999999" type="line"/>
      <point x="1274.624" y="1506.68" type="line"/>
      <point x="1258.2" y="1506.68" type="line"/>
      <point x="1113.536" y="1430.0" type="line"/>
      <point x="388.352" y="1430.0" type="line"/>
      <point x="388.352" y="1344.0800000000002" type="line"/>
      <point x="1242.056" y="1344.0800000000002" type="line"/>
      <point x="1078.0400000000002" y="1389.464" type="line"/>
      <point x="1331.528" y="983.288" type="line"/>
    </contour>
    <contour>
      <point x="1121.312" y="47.312000000000005" type="line"/>
      <point x="1269.48" y="85.92" type="line"/>
      <point x="388.352" y="85.92" type="line"/>
      <point x="388.352" y="0.0" type="line"/>
      <point x="1157.568" y="0.0" type="line"/>
      <point x="1292.6960000000001" y="-72.792" type="line"/>
      <point x="1314.952" y="-72.792" type="line"/>
      <point x="1436.5040000000001" y="457.856" type="line"/>
      <point x="1398.544" y="467.44800000000004" type="line"/>
    </contour>
    <contour>
      <point x="54.392" y="0.0" type="line"/>
      <point x="611.76" y="0.0" type="line"/>
      <point x="611.76" y="1430.0" type="line"/>
      <point x="54.392" y="1430.0" type="line"/>
      <point x="54.392" y="1394.52" type="line"/>
      <point x="210.06400000000002" y="1350.28" type="line"/>
      <point x="210.06400000000002" y="80.72" type="line"/>
      <point x="54.392" y="34.832" type="line"/>
    </contour>
  </outline>
</glyph>
<glyph name="G" format="2">
  <advance width="1598.4479999999999"/>
  <unicode hex="0047"/>
  <anchor x="834.8639999999999" y="1430.0" name="UCtop"/>
  <anchor x="885.408" y="0.0" name="bottom"/>
  <outline>
    <contour>
      <point x="1426.44" y="117.608" type="line"/>
      <point x="1426.44" y="557.096" type="line"/>
      <point x="1549.1280000000002" y="602.5200000000001" type="line"/>
      <point x="1549.1280000000002" y="639.352" type="line"/>
      <point x="865.5120000000001" y="639.352" type="line"/>
      <point x="865.5120000000001" y="602.5200000000001" type="line"/>
      <point x="1041.7440000000001" y="551.096" type="line"/>
      <point x="1041.7440000000001" y="8.152" type="line"/>
      <point x="1139.32" y="87.112" type="line"/>
      <point x="1087.152" y="58.2"/>
      <point x="1022.1999999999999" y="42.568"/>
      <point x="953.728" y="42.568" type="curve" smooth="yes"/>
      <point x="699.64" y="42.568"/>
      <point x="485.904" y="326.72"/>
      <point x="485.904" y="790.768" type="curve" smooth="yes"/>
      <point x="485.904" y="1233.28"/>
      <point x="667.048" y="1383.9119999999998"/>
      <point x="908.4240000000001" y="1383.9119999999998" type="curve" smooth="yes"/>
      <point x="1031.288" y="1383.9119999999998"/>
      <point x="1134.392" y="1333.552"/>
      <point x="1252.968" y="1207.424" type="curve"/>
      <point x="1126.104" y="1350.488" type="line"/>
      <point x="1385.968" y="947.2879999999999" type="line"/>
      <point x="1418.744" y="956.768" type="line"/>
      <point x="1312.5439999999999" y="1500.848" type="line"/>
      <point x="1297.248" y="1500.848" type="line"/>
      <point x="1148.848" y="1388.8319999999999" type="line"/>
      <point x="1264.24" y="1411.68" type="line"/>
      <point x="1153.28" y="1440.1439999999998"/>
      <point x="1059.3999999999999" y="1456.48"/>
      <point x="927.2080000000001" y="1456.48" type="curve" smooth="yes"/>
      <point x="417.832" y="1456.48"/>
      <point x="73.56" y="1160.5919999999999"/>
      <point x="73.56" y="728.352" type="curve" smooth="yes"/>
      <point x="73.56" y="230.94400000000002"/>
      <point x="404.696" y="-26.48"/>
      <point x="901.0" y="-26.48" type="curve" smooth="yes"/>
      <point x="1086.048" y="-26.48"/>
      <point x="1296.192" y="4.352"/>
      <point x="1544.904" y="81.24" type="curve"/>
      <point x="1544.904" y="117.60799999999999" type="line"/>
    </contour>
  </outline>
</glyph>
<glyph name="H" format="2">
  <advance width="1780.5439999999999"/>
  <unicode hex="0048"/>
  <anchor x="890.096" y="1430.0" name="UCtop"/>
  <anchor x="890.096" y="0.0" name="bottom"/>
  <outline>
    <contour>
      <point x="611.76" y="80.72" type="line"/>
      <point x="611.76" y="1350.28" type="line"/>
      <point x="767.432" y="1394.52" type="line"/>
      <point x="767.432" y="1430.0" type="line"/>
      <point x="54.392" y="1430.0" type="line"/>
      <point x="54.392" y="1394.52" type="line"/>
      <point x="210.06400000000002" y="1350.28" type="line"/>
      <point x="210.06400000000002" y="80.72" type="line"/>
      <point x="54.392" y="34.832" type="line"/>
      <point x="54.392" y="0.0" type="line"/>
      <point x="767.432" y="0.0" type="line"/>
      <point x="767.432" y="34.832" type="line"/>
    </contour>
    <contour>
      <point x="1570.48" y="80.72" type="line"/>
      <point x="1570.48" y="1350.28" type="line"/>
      <point x="1726.152" y="1394.52" type="line"/>
      <point x="1726.152" y="1430.0" type="line"/>
      <point x="1013.112" y="1430.0" type="line"/>
      <point x="1013.112" y="1394.52" type="line"/>
      <point x="1168.7839999999999" y="1350.28" type="line"/>
      <point x="1168.7839999999999" y="80.72" type="line"/>
      <point x="1013.112" y="34.832" type="line"/>
      <point x="1013.112" y="0.0" type="line"/>
      <point x="1726.152" y="0.0" type="line"/>
      <point x="1726.152" y="34.832" type="line"/>
    </contour>
    <contour>
      <point x="396.44800000000004" y="698.336" type="line"/>
      <point x="1381.096" y="698.336" type="line"/>
      <point x="1381.096" y="784.256" type="line"/>
      <point x="396.44800000000004" y="784.256" type="line"/>
    </contour>
  </outline>
</glyph>
<glyph name="I" format="2">
  <advance width="821.824"/>
  <unicode hex="0049"/>
  <anchor x="410.912" y="1430.0" name="UCtop"/>
  <anchor x="580.208" y="0.0" name="right"/>
  <anchor x="410.912" y="0.0" name="bottom"/>
  <outline>
    <contour>
      <point x="767.432" y="34.832" type="line"/>
      <point x="611.76" y="80.72" type="line"/>
      <point x="611.76" y="1350.28" type="line"/>
      <point x="767.432" y="1394.52" type="line"/>
      <point x="767.432" y="1430.0" type="line"/>
      <point x="54.392" y="1430.0" type="line"/>
      <point x="54.392" y="1394.52" type="line"/>
      <point x="210.06400000000002" y="1350.28" type="line"/>
      <point x="210.06400000000002" y="80.72" type="line"/>
      <point x="54.392" y="34.832" type="line"/>
      <point x="54.392" y="0.0" type="line"/>
      <point x="767.432" y="0.0" type="line"/>
    </contour>
  </outline>
</glyph>
<glyph name="J" format="2">
  <advance width="964.536"/>
  <unicode hex="004A"/>
  <anchor x="581.032" y="1430.0" name="UCtop"/>
  <anchor x="517.304" y="0.0" name="bottom"/>
  <outline>
    <contour>
      <point x="781.88" y="551.976" type="curve" smooth="yes"/>
      <point x="781.8800000000001" y="1350.28" type="line"/>
      <point x="937.552" y="1394.52" type="line"/>
      <point x="937.552" y="1430.0" type="line"/>
      <point x="224.512" y="1430.0" type="line"/>
      <point x="224.512" y="1394.52" type="line"/>
      <point x="380.18399999999997" y="1350.28" type="line"/>
      <point x="380.18399999999997" y="215.504" type="line" smooth="yes"/>
      <point x="380.18399999999997" y="140.256"/>
      <point x="353.128" y="117.92"/>
      <point x="302.216" y="117.92" type="curve" smooth="yes"/>
      <point x="212.328" y="117.92"/>
      <point x="140.608" y="227.72799999999998"/>
      <point x="108.256" y="227.72799999999998" type="curve" smooth="yes"/>
      <point x="53.111999999999995" y="227.72799999999998"/>
      <point x="1.5039999999999996" y="177.35999999999999"/>
      <point x="1.5039999999999996" y="107.976" type="curve" smooth="yes"/>
      <point x="1.5039999999999996" y="29.720000000000002"/>
      <point x="56.592" y="-21.944000000000003"/>
      <point x="167.88" y="-21.944000000000003" type="curve" smooth="yes"/>
      <point x="462.432" y="-21.944000000000003"/>
      <point x="781.88" y="236.024"/>
    </contour>
  </outline>
</glyph>
<glyph name="O" format="2">
  <advance width="1653.432"/>
  <unicode hex="004F"/>
  <anchor x="827.216" y="1430.0" name="UCtop"/>
  <anchor x="827.216" y="0.0" name="bottom"/>
  <anchor x="1154.376" y="1430.0" name="horn"/>
  <anchor x="1008.624" y="0.0" name="right"/>
  <outline>
    <contour>
      <point x="846.304" y="1456.48" type="curve" smooth="yes"/>
      <point x="398.72" y="1456.48"/>
      <point x="73.264" y="1140.9061492537312"/>
      <point x="73.264" y="697.152" type="curve" smooth="yes"/>
      <point x="73.264" y="267.30288979591836"/>
      <point x="382.87199999999996" y="-26.48"/>
      <point x="807.832" y="-26.48" type="curve" smooth="yes"/>
      <point x="1254.712" y="-26.48"/>
      <point x="1580.168" y="289.09424627875507"/>
      <point x="1580.168" y="733.552" type="curve" smooth="yes"/>
      <point x="1580.168" y="1162.697506139154"/>
      <point x="1270.56" y="1456.48"/>
    </contour>
    <contour>
      <point x="841.696" y="46.792" type="curve" smooth="yes"/>
      <point x="614.384" y="46.792"/>
      <point x="479.608" y="307.3679111111111"/>
      <point x="479.608" y="783.936" type="curve" smooth="yes"/>
      <point x="479.608" y="1212.6400852359209"/>
      <point x="616.656" y="1383.5600000000002"/>
      <point x="811.736" y="1383.5600000000002" type="curve" smooth="yes"/>
      <point x="1038.344" y="1383.5600000000002"/>
      <point x="1173.472" y="1122.632399445215"/>
      <point x="1173.472" y="646.064" type="curve" smooth="yes"/>
      <point x="1173.472" y="217.71170731707318"/>
      <point x="1036.424" y="46.792"/>
    </contour>
  </outline>
</glyph>
<glyph name="P" format="2">
  <advance width="1430.5919999999999"/>
  <unicode hex="0050"/>
  <anchor x="732.688" y="1430.0" name="UCtop"/>
  <anchor x="410.912" y="0.0" name="bottom"/>
  <outline>
    <contour>
      <point x="1013.24" y="1023.392" type="curve" smooth="yes"/>
      <point x="1013.24" y="815.112"/>
      <point x="884.864" y="703.7040000000001"/>
      <point x="698.416" y="703.7040000000001" type="curve" smooth="yes"/>
      <point x="398.112" y="703.7040000000001" type="line"/>
      <point x="412.368" y="617.784" type="line"/>
      <point x="865.0" y="617.784" type="line" smooth="yes"/>
      <point x="1239.96" y="617.784"/>
      <point x="1402.7359999999999" y="803.728"/>
      <point x="1402.7359999999999" y="1028.616" type="curve" smooth="yes"/>
      <point x="1402.7359999999999" y="1250.392"/>
      <point x="1248.904" y="1430.0"/>
      <point x="865.0" y="1430.0" type="curve" smooth="yes"/>
      <point x="412.368" y="1430.0" type="line"/>
      <point x="398.112" y="1344.0800000000002" type="line"/>
      <point x="640.992" y="1344.0800000000002" type="line" smooth="yes"/>
      <point x="909.68" y="1344.0800000000002"/>
      <point x="1013.24" y="1227.672"/>
    </contour>
    <contour>
      <point x="611.76" y="1430.0" type="line"/>
      <point x="54.392" y="1430.0" type="line"/>
      <point x="54.392" y="1394.52" type="line"/>
      <point x="210.06400000000002" y="1350.28" type="line"/>
      <point x="210.06400000000002" y="80.72" type="line"/>
      <point x="54.392" y="34.832" type="line"/>
      <point x="54.392" y="0.0" type="line"/>
      <point x="767.432" y="0.0" type="line"/>
      <point x="767.432" y="34.832" type="line"/>
      <point x="611.76" y="80.72" type="line"/>
    </contour>
  </outline>
</glyph>
<glyph name="Q" format="2">
  <advance width="1656.672"/>
  <unicode hex="0051"/>
  <anchor x="829.16" y="1430.0" name="UCtop"/>
  <anchor x="829.16" y="-438.52" name="bottom"/>
  <outline>
    <contour>
      <point x="808.896" y="-267.93600000000004" type="line" smooth="yes"/>
      <point x="1002.696" y="-433.048"/>
      <point x="1152.032" y="-470.184"/>
      <point x="1378.6480000000001" y="-470.184" type="curve" smooth="yes"/>
      <point x="1487.0880000000002" y="-470.184"/>
      <point x="1651.016" y="-432.152"/>
      <point x="1760.248" y="-400.704" type="curve"/>
      <point x="1760.248" y="-348.096" type="line"/>
      <point x="1620.9360000000001" y="-362.376"/>
      <point x="1526.376" y="-333.52799999999996"/>
      <point x="1308.368" y="-207.488" type="curve" smooth="yes"/>
      <point x="887.528" y="36.92" type="line"/>
      <point x="889.768" y="1.888" type="line"/>
      <point x="1307.864" y="14.448000000000004"/>
      <point x="1582.112" y="320.216"/>
      <point x="1582.112" y="717.352" type="curve" smooth="yes"/>
      <point x="1582.112" y="1163.848"/>
      <point x="1288.704" y="1456.48"/>
      <point x="848.2479999999999" y="1456.48" type="curve" smooth="yes"/>
      <point x="394.184" y="1456.48"/>
      <point x="75.208" y="1155.0159999999998"/>
      <point x="75.208" y="713.352" type="curve" smooth="yes"/>
      <point x="75.208" y="435.312"/>
      <point x="173.288" y="245.976"/>
      <point x="390.992" y="65.872" type="curve" smooth="yes"/>
    </contour>
    <contour>
      <point x="843.64" y="46.792" type="curve" smooth="yes"/>
      <point x="616.328" y="46.792"/>
      <point x="481.552" y="307.496"/>
      <point x="481.552" y="783.936" type="curve" smooth="yes"/>
      <point x="481.552" y="1212.5040000000001"/>
      <point x="618.5999999999999" y="1383.5600000000002"/>
      <point x="813.6800000000001" y="1383.5600000000002" type="curve" smooth="yes"/>
      <point x="1040.288" y="1383.5600000000002"/>
      <point x="1175.416" y="1122.504"/>
      <point x="1175.416" y="646.064" type="curve" smooth="yes"/>
      <point x="1175.416" y="217.848"/>
      <point x="1038.368" y="46.792"/>
    </contour>
  </outline>
</glyph>
<glyph name="V" format="2">
  <advance width="1563.9840000000002"/>
  <unicode hex="0056"/>
  <anchor x="885.712" y="1430.0" name="UCtop"/>
  <anchor x="832.424" y="0.0" name="bottom"/>
  <outline>
    <contour>
      <point x="104.57600000000001" y="1345.04" type="line"/>
      <point x="726.592" y="-7.039999999999999" type="line"/>
      <point x="943.4399999999999" y="-7.039999999999999" type="line"/>
      <point x="1428.28" y="1346.112" type="line"/>
      <point x="1581.28" y="1396.464" type="line"/>
      <point x="1581.28" y="1430.0" type="line"/>
      <point x="1168.3919999999998" y="1430.0" type="line"/>
      <point x="1168.3919999999998" y="1396.464" type="line"/>
      <point x="1339.6000000000001" y="1349.112" type="line"/>
      <point x="958.4079999999999" y="243.55200000000002" type="line"/>
      <point x="1026.176" y="274.656" type="line"/>
      <point x="540.6" y="1347.04" type="line"/>
      <point x="712.232" y="1395.168" type="line"/>
      <point x="712.232" y="1430.0" type="line"/>
      <point x="-51.424" y="1430.0" type="line"/>
      <point x="-51.424" y="1395.168" type="line"/>
    </contour>
  </outline>
</glyph>
<glyph name="Y" format="2">
  <advance width="1538.392"/>
  <unicode hex="0059"/>
  <anchor x="838.624" y="1430.0" name="UCtop"/>
  <anchor x="792.408" y="0.0" name="bottom"/>
  <outline>
    <contour>
      <point x="117.392" y="1346.336" type="line"/>
      <point x="591.56" y="668.016" type="line"/>
      <point x="591.56" y="80.72" type="line"/>
      <point x="435.888" y="34.832" type="line"/>
      <point x="435.888" y="0.0" type="line"/>
      <point x="1148.928" y="0.0" type="line"/>
      <point x="1148.928" y="34.832" type="line"/>
      <point x="993.2560000000001" y="80.72" type="line"/>
      <point x="993.2560000000001" y="673.7919999999999" type="line"/>
      <point x="1391.9279999999999" y="1346.112" type="line"/>
      <point x="1542.9840000000002" y="1394.52" type="line"/>
      <point x="1542.9840000000002" y="1430.0" type="line"/>
      <point x="1125.672" y="1430.0" type="line"/>
      <point x="1125.672" y="1394.52" type="line"/>
      <point x="1298.176" y="1349.112" type="line"/>
      <point x="922.504" y="710.272" type="line"/>
      <point x="990.96" y="718.6959999999999" type="line"/>
      <point x="572.432" y="1348.336" type="line"/>
      <point x="754.544" y="1394.52" type="line"/>
      <point x="754.544" y="1430.0" type="line"/>
      <point x="-29.536" y="1430.0" type="line"/>
      <point x="-29.536" y="1394.52" type="line"/>
    </contour>
  </outline>
</glyph>
<glyph name="Z" format="2">
  <advance width="1433.136"/>
  <unicode hex="005A"/>
  <anchor x="765.368" y="1430.0" name="UCtop"/>
  <anchor x="706.488" y="0.0" name="bottom"/>
  <outline>
    <contour>
      <point x="1320.248" y="1430.0" type="line"/>
      <point x="299.352" y="1430.0" type="line"/>
      <point x="162.128" y="1505.3120000000001" type="line"/>
      <point x="143.944" y="1505.3120000000001" type="line"/>
      <point x="46.152" y="995.416" type="line"/>
      <point x="74.336" y="985.88" type="line"/>
      <point x="304.24" y="1344.0800000000002" type="line"/>
      <point x="1246.952" y="1344.0800000000002" type="line"/>
      <point x="911.736" y="1418.664" type="line"/>
      <point x="85.448" y="36.92" type="line"/>
      <point x="85.448" y="0.0" type="line"/>
      <point x="1135.88" y="0.0" type="line"/>
      <point x="1293.616" y="-71.44" type="line"/>
      <point x="1319.04" y="-71.44" type="line"/>
      <point x="1405.704" y="447.89599999999996" type="line"/>
      <point x="1376.112" y="458.08" type="line"/>
      <point x="1125.416" y="85.92" type="line"/>
      <point x="296.79200000000003" y="85.92" type="line"/>
      <point x="496.608" y="14.984" type="line"/>
      <point x="1320.248" y="1392.728" type="line"/>
    </contour>
  </outline>
</glyph>
<glyph name="backslash" format="2">
  <advance width="779.464"/>
  <unicode hex="005C"/>
  <outline>
    <contour>
      <point x="730.888" y="0.0" type="line"/>
      <point x="133.888" y="1430.0" type="line"/>
      <point x="45.576" y="1430.0" type="line"/>
      <point x="642.5759999999999" y="0.0" type="line"/>
    </contour>
  </outline>
</glyph>
<glyph name="bracketright" format="2">
  <advance width="608.9200000000001"/>
  <unicode hex="005D"/>
  <outline>
    <contour>
      <point x="443.192" y="1464.0" type="line"/>
      <point x="11.984000000000002" y="1464.0" type="line"/>
      <point x="11.984000000000002" y="1427.872" type="line"/>
      <point x="238.984" y="1399.984" type="line"/>
      <point x="238.984" y="-152.784" type="line"/>
      <point x="11.984000000000002" y="-180.672" type="line"/>
      <point x="11.984000000000002" y="-216.8" type="line"/>
      <point x="443.192" y="-216.8" type="line"/>
    </contour>
  </outline>
</glyph>
<glyph name="c" format="2">
  <advance width="1023.3520000000001"/>
  <unicode hex="0063"/>
  <anchor x="554.2719999999999" y="1024.0" name="top"/>
  <anchor x="984.464" y="0.0" name="right"/>
  <anchor x="565.288" y="0.0" name="bottom"/>
  <outline>
    <contour>
      <point x="631.4" y="1050.48" type="curve" smooth="yes"/>
      <point x="310.312" y="1050.48"/>
      <point x="55.559999999999995" y="813.0"/>
      <point x="55.559999999999995" y="492.704" type="curve" smooth="yes"/>
      <point x="55.559999999999995" y="164.48"/>
      <point x="254.688" y="-26.48"/>
      <point x="549.104" y="-26.48" type="curve" smooth="yes"/>
      <point x="731.3199999999999" y="-26.48"/>
      <point x="860.2800000000001" y="54.48"/>
      <point x="997.424" y="302.728" type="curve"/>
      <point x="973.352" y="323.448" type="line"/>
      <point x="884.376" y="231.8"/>
      <point x="804.9440000000001" y="202.056"/>
      <point x="693.76" y="202.056" type="curve" smooth="yes"/>
      <point x="494.568" y="202.056"/>
      <point x="384.23199999999997" y="326.096"/>
      <point x="384.23199999999997" y="660.448" type="curve" smooth="yes"/>
      <point x="384.23199999999997" y="902.344"/>
      <point x="451.24" y="983.872"/>
      <point x="549.936" y="983.872" type="curve" smooth="yes"/>
      <point x="674.9920000000001" y="983.872"/>
      <point x="816.336" y="744.216"/>
      <point x="851.76" y="744.216" type="curve" smooth="yes"/>
      <point x="918.0" y="744.216"/>
      <point x="979.68" y="793.88"/>
      <point x="979.68" y="869.192" type="curve" smooth="yes"/>
      <point x="979.68" y="955.616"/>
      <point x="887.552" y="1050.48"/>
    </contour>
  </outline>
</glyph>
<glyph name="m" format="2">
  <advance width="1893.8400000000001"/>
  <unicode hex="006D"/>
  <anchor x="949.912" y="1024.0" name="top"/>
  <anchor x="949.912" y="0.0" name="bottom"/>
  <outline>
    <contour>
      <point x="506.488" y="819.176" type="line"/>
      <point x="506.48800000000006" y="1054.352" type="line"/>
      <point x="487.584" y="1054.352" type="line"/>
      <point x="34.984" y="932.896" type="line"/>
      <point x="34.984" y="905.1759999999999" type="line"/>
      <point x="94.23200000000001" y="850.672"/>
      <point x="135.248" y="804.4978461538461"/>
      <point x="157.896" y="779.5360000000001" type="curve"/>
      <point x="157.896" y="64.128" type="line"/>
      <point x="51.832" y="30.888" type="line"/>
      <point x="51.832" y="0.0" type="line"/>
      <point x="598.944" y="0.0" type="line"/>
      <point x="598.944" y="30.888" type="line"/>
      <point x="506.488" y="62.184" type="line"/>
    </contour>
    <contour>
      <point x="1132.632" y="756.736" type="line" smooth="yes"/>
      <point x="1132.632" y="944.168"/>
      <point x="1041.376" y="1044.0"/>
      <point x="865.1519999999999" y="1044.0" type="curve" smooth="yes"/>
      <point x="731.12" y="1044.0"/>
      <point x="664.544" y="1018.5360000000001"/>
      <point x="464.952" y="799.96" type="curve"/>
      <point x="469.176" y="778.144" type="line"/>
      <point x="529.12" y="807.144"/>
      <point x="588.1279999999999" y="823.592"/>
      <point x="646.84" y="823.592" type="curve" smooth="yes"/>
      <point x="740.48" y="823.592"/>
      <point x="784.04" y="785.8639999999999"/>
      <point x="784.04" y="686.84" type="curve" smooth="yes"/>
      <point x="784.04" y="62.184" type="line"/>
      <point x="691.232" y="30.888" type="line"/>
      <point x="691.232" y="0.0" type="line"/>
      <point x="1225.0880000000002" y="0.0" type="line"/>
      <point x="1225.0880000000002" y="30.888" type="line"/>
      <point x="1132.632" y="62.184" type="line"/>
    </contour>
    <contour>
      <point x="1758.776" y="756.736" type="line" smooth="yes"/>
      <point x="1758.776" y="944.168"/>
      <point x="1667.52" y="1044.0"/>
      <point x="1491.2959999999998" y="1044.0" type="curve" smooth="yes"/>
      <point x="1357.264" y="1044.0"/>
      <point x="1290.688" y="1018.5360000000001"/>
      <point x="1091.096" y="799.96" type="curve"/>
      <point x="1095.32" y="778.144" type="line"/>
      <point x="1155.2640000000001" y="807.144"/>
      <point x="1214.272" y="823.592"/>
      <point x="1272.9840000000002" y="823.592" type="curve" smooth="yes"/>
      <point x="1366.624" y="823.592"/>
      <point x="1410.184" y="785.864"/>
      <point x="1410.184" y="686.84" type="curve" smooth="yes"/>
      <point x="1410.184" y="62.184" type="line"/>
      <point x="1317.3760000000002" y="30.888" type="line"/>
      <point x="1317.3760000000002" y="0.0" type="line"/>
      <point x="1864.192" y="0.0" type="line"/>
      <point x="1864.192" y="30.888" type="line"/>
      <point x="1758.776" y="64.128" type="line"/>
    </contour>
  </outline>
</glyph>
<glyph name="p" format="2">
  <advance width="1271.0"/>
  <unicode hex="0070"/>
  <anchor x="612.44" y="1024.0" name="top"/>
  <anchor x="322.43199999999996" y="-438.52" name="bottom"/>
  <outline>
    <contour>
      <point x="850.6080000000001" y="487.83200000000005" type="curve" smooth="yes"/>
      <point x="850.6080000000001" y="157.24800000000002"/>
      <point x="776.192" y="37.72"/>
      <point x="648.88" y="37.72" type="curve" smooth="yes"/>
      <point x="554.5360000000001" y="37.72"/>
      <point x="496.728" y="103.208"/>
      <point x="496.728" y="209.584" type="curve" smooth="yes"/>
      <point x="496.728" y="856.3599999999999" type="line"/>
      <point x="496.728" y="1054.352" type="line"/>
      <point x="477.82399999999996" y="1054.352" type="line"/>
      <point x="25.223999999999997" y="932.896" type="line"/>
      <point x="25.223999999999997" y="905.176" type="line"/>
      <point x="99.224" y="827.1295824175825"/>
      <point x="122.136" y="807.6057142857143"/>
      <point x="148.136" y="780.1840000000001" type="curve"/>
      <point x="148.136" y="-374.39200000000005" type="line"/>
      <point x="42.072" y="-407.63199999999995" type="line"/>
      <point x="42.072" y="-438.52" type="line"/>
      <point x="622.792" y="-438.52" type="line"/>
      <point x="622.792" y="-407.63199999999995" type="line"/>
      <point x="496.728" y="-374.392" type="line"/>
      <point x="496.728" y="51.928" type="line"/>
      <point x="296.632" y="51.928" type="line"/>
      <point x="402.70399999999995" y="-3.4240000000000004"/>
      <point x="523.576" y="-26.48"/>
      <point x="644.464" y="-26.48" type="curve" smooth="yes"/>
      <point x="970.648" y="-26.48"/>
      <point x="1211.2" y="187.224"/>
      <point x="1211.2" y="578.2" type="curve" smooth="yes"/>
      <point x="1211.2" y="878.864"/>
      <point x="1076.584" y="1050.48"/>
      <point x="828.84" y="1050.48" type="curve" smooth="yes"/>
      <point x="707.176" y="1050.48"/>
      <point x="621.224" y="1012.624"/>
      <point x="437.74399999999997" y="822.6239999999999" type="curve"/>
      <point x="443.024" y="791.608" type="line"/>
      <point x="495.08799999999997" y="839.304"/>
      <point x="556.392" y="865.528"/>
      <point x="633.104" y="865.528" type="curve" smooth="yes"/>
      <point x="788.376" y="865.528"/>
      <point x="850.6080000000001" y="760.8720000000001"/>
    </contour>
  </outline>
</glyph>
<glyph name="q" format="2">
  <advance width="1246.184"/>
  <unicode hex="0071"/>
  <anchor x="625.176" y="1024.0" name="top"/>
  <anchor x="946.9200000000001" y="-438.52" name="bottom"/>
  <outline>
    <contour>
      <point x="418.096" y="556.256" type="curve" smooth="yes"/>
      <point x="418.096" y="868.048"/>
      <point x="493.808" y="986.28"/>
      <point x="619.8240000000001" y="986.28" type="curve" smooth="yes"/>
      <point x="714.168" y="986.28"/>
      <point x="771.976" y="920.7919999999999"/>
      <point x="771.976" y="814.4159999999999" type="curve" smooth="yes"/>
      <point x="771.976" y="-374.392" type="line"/>
      <point x="645.9119999999999" y="-407.63199999999995" type="line"/>
      <point x="645.9119999999999" y="-438.52" type="line"/>
      <point x="1227.28" y="-438.52" type="line"/>
      <point x="1227.28" y="-407.63199999999995" type="line"/>
      <point x="1121.2160000000001" y="-374.39200000000005" type="line"/>
      <point x="1121.2160000000001" y="826.8879999999999" type="line"/>
      <point x="1170.936" y="1037.296" type="line"/>
      <point x="1153.64" y="1051.7759999999998" type="line"/>
      <point x="911.928" y="972.048" type="line"/>
      <point x="1013.544" y="971.4240000000001" type="line"/>
      <point x="902.288" y="1026.776"/>
      <point x="776.2320000000001" y="1050.48"/>
      <point x="649.512" y="1050.48" type="curve" smooth="yes"/>
      <point x="306.48" y="1050.48"/>
      <point x="57.504" y="838.72"/>
      <point x="57.504" y="462.648" type="curve" smooth="yes"/>
      <point x="57.504" y="169.112"/>
      <point x="221.56" y="-26.48"/>
      <point x="480.968" y="-26.48" type="curve" smooth="yes"/>
      <point x="595.504" y="-26.48"/>
      <point x="676.9200000000001" y="9.431999999999999"/>
      <point x="830.312" y="203.968" type="curve"/>
      <point x="825.032" y="233.04" type="line"/>
      <point x="771.024" y="174.976"/>
      <point x="701.944" y="158.47199999999998"/>
      <point x="642.08" y="158.47199999999998" type="curve" smooth="yes"/>
      <point x="482.91999999999996" y="158.47199999999998"/>
      <point x="418.096" y="274.792"/>
    </contour>
  </outline>
</glyph>
<glyph name="w" format="2">
  <advance width="1723.856"/>
  <unicode hex="0077"/>
  <anchor x="930.232" y="1024.0" name="top"/>
  <anchor x="884.872" y="0.0" name="bottom"/>
  <outline>
    <contour>
      <point x="1542.2" y="964.24" type="line"/>
      <point x="1343.184" y="154.672" type="line"/>
      <point x="1409.032" y="228.40800000000002" type="line"/>
      <point x="1095.608" y="1034.56" type="line"/>
      <point x="880.576" y="1034.56" type="line"/>
      <point x="594.552" y="154.024" type="line"/>
      <point x="658.048" y="221.832" type="line"/>
      <point x="450.30400000000003" y="959.536" type="line"/>
      <point x="569.3839999999999" y="991.0" type="line"/>
      <point x="569.3839999999999" y="1024.0" type="line"/>
      <point x="-18.904" y="1024.0" type="line"/>
      <point x="-18.904" y="992.944" type="line"/>
      <point x="87.064" y="951.0559999999999" type="line"/>
      <point x="384.696" y="-9.152" type="line"/>
      <point x="596.672" y="-9.152" type="line"/>
      <point x="892.664" y="821.0319999999999" type="line"/>
      <point x="824.5920000000001" y="798.3520000000001" type="line"/>
      <point x="1143.72" y="-9.152" type="line"/>
      <point x="1355.6960000000001" y="-9.152" type="line"/>
      <point x="1626.5520000000001" y="963.296" type="line"/>
      <point x="1733.52" y="991.0" type="line"/>
      <point x="1733.52" y="1024.0" type="line"/>
      <point x="1421.712" y="1024.0" type="line"/>
      <point x="1421.712" y="991.0" type="line"/>
    </contour>
  </outline>
</glyph>
<glyph name="x" format="2">
  <advance width="1195.464"/>
  <unicode hex="0078"/>
  <anchor x="632.32" y="1024.0" name="top"/>
  <anchor x="596.4000000000001" y="0.0" name="bottom"/>
  <outline>
    <contour>
      <point x="1118.08" y="67.0" type="line"/>
      <point x="721.144" y="620.5120000000001" type="line"/>
      <point x="708.6640000000001" y="632.104" type="line"/>
      <point x="481.864" y="962.832" type="line"/>
      <point x="587.224" y="991.0" type="line"/>
      <point x="587.224" y="1024.0" type="line"/>
      <point x="-4.624000000000002" y="1024.0" type="line"/>
      <point x="-4.624000000000002" y="991.0" type="line"/>
      <point x="103.67999999999999" y="951.0" type="line"/>
      <point x="467.13599999999997" y="438.08000000000004" type="line"/>
      <point x="480.968" y="424.13599999999997" type="line"/>
      <point x="735.2479999999999" y="59.52" type="line"/>
      <point x="623.888" y="32.352000000000004" type="line"/>
      <point x="623.888" y="0.0" type="line"/>
      <point x="1224.7359999999999" y="0.0" type="line"/>
      <point x="1224.7359999999999" y="32.352000000000004" type="line"/>
    </contour>
    <contour>
      <point x="532.84" y="465.36" type="line"/>
      <point x="640.152" y="493.224" type="line"/>
      <point x="1033.1680000000001" y="959.76" type="line"/>
      <point x="1159.4080000000001" y="991.0" type="line"/>
      <point x="1159.4080000000001" y="1024.0" type="line"/>
      <point x="814.336" y="1024.0" type="line"/>
      <point x="814.336" y="991.0" type="line"/>
      <point x="942.152" y="962.352" type="line"/>
      <point x="629.168" y="568.496" type="line"/>
      <point x="522.208" y="540.632" type="line"/>
      <point x="122.152" y="64.24" type="line"/>
      <point x="-7.607999999999999" y="33.0" type="line"/>
      <point x="-7.607999999999999" y="0.0" type="line"/>
      <point x="338.52000000000004" y="0.0" type="line"/>
      <point x="338.52000000000004" y="33.0" type="line"/>
      <point x="214.224" y="61.647999999999996" type="line"/>
    </contour>
  </outline>
</glyph>
<glyph name="bar" format="2">
  <advance width="415.12"/>
  <unicode hex="007C"/>
  <outline>
    <contour>
      <point x="166.37599999999998" y="-465.0" type="line"/>
      <point x="248.744" y="-465.0" type="line"/>
      <point x="248.744" y="1535.0" type="line"/>
      <point x="166.37599999999998" y="1535.0" type="line"/>
    </contour>
  </outline>
</glyph>
<glyph name="asciitilde" format="2">
  <advance width="1150.0"/>
  <unicode hex="007E"/>
  <outline>
    <contour>
      <point x="162.0" y="396.0" type="curve"/>
      <point x="251.38400000000001" y="396.0" type="line"/>
      <point x="259.848" y="500.336"/>
      <point x="295.312" y="550.5039999999999"/>
      <point x="391.888" y="550.5039999999999" type="curve" smooth="yes"/>
      <point x="525.8720000000001" y="550.5039999999999"/>
      <point x="584.0" y="388.0"/>
      <point x="761.0" y="388.0" type="curve" smooth="yes"/>
      <point x="877.888" y="388.0"/>
      <point x="983.8879999999999" y="440.0"/>
      <point x="988.0" y="628.0" type="curve"/>
      <point x="898.616" y="628.0" type="line"/>
      <point x="890.152" y="523.664"/>
      <point x="854.688" y="473.496"/>
      <point x="758.112" y="473.496" type="curve" smooth="yes"/>
      <point x="624.128" y="473.496"/>
      <point x="566.0" y="636.0"/>
      <point x="389.0" y="636.0" type="curve" smooth="yes"/>
      <point x="272.11199999999997" y="636.0"/>
      <point x="166.112" y="584.0"/>
    </contour>
  </outline>
</glyph>
<glyph name="currency" format="2">
  <advance width="922.784"/>
  <unicode hex="00A4"/>
  <outline>
    <contour>
      <point x="166.52" y="867.48" type="line"/>
      <point x="105.91199999999999" y="806.872" type="line"/>
      <point x="223.136" y="689.648" type="line"/>
      <point x="283.744" y="750.256" type="line"/>
    </contour>
    <contour>
      <point x="105.91199999999999" y="217.128" type="line"/>
      <point x="166.52" y="156.51999999999998" type="line"/>
      <point x="281.152" y="271.152" type="line"/>
      <point x="220.54399999999998" y="331.76" type="line"/>
    </contour>
    <contour>
      <point x="461.392" y="815.128" type="curve" smooth="yes"/>
      <point x="284.504" y="815.128"/>
      <point x="157.264" y="688.8879999999999"/>
      <point x="157.264" y="512.0" type="curve" smooth="yes"/>
      <point x="157.264" y="335.11199999999997"/>
      <point x="284.504" y="208.872"/>
      <point x="461.392" y="208.872" type="curve" smooth="yes"/>
      <point x="638.2800000000001" y="208.872"/>
      <point x="765.52" y="335.11199999999997"/>
      <point x="765.52" y="512.0" type="curve" smooth="yes"/>
      <point x="765.52" y="688.8879999999999"/>
      <point x="638.2800000000001" y="815.128"/>
    </contour>
    <contour>
      <point x="461.392" y="289.71999999999997" type="curve" smooth="yes"/>
      <point x="334.224" y="289.71999999999997"/>
      <point x="242.76000000000002" y="378.832"/>
      <point x="242.76000000000002" y="512.0" type="curve" smooth="yes"/>
      <point x="242.76000000000002" y="645.168"/>
      <point x="334.224" y="734.28"/>
      <point x="461.392" y="734.28" type="curve" smooth="yes"/>
      <point x="588.56" y="734.28"/>
      <point x="680.024" y="645.168"/>
      <point x="680.024" y="512.0" type="curve" smooth="yes"/>
      <point x="680.024" y="378.832"/>
      <point x="588.56" y="289.71999999999997"/>
    </contour>
    <contour>
      <point x="816.872" y="806.872" type="line"/>
      <point x="756.2639999999999" y="867.48" type="line"/>
      <point x="639.0400000000001" y="750.256" type="line"/>
      <point x="699.6479999999999" y="689.648" type="line"/>
    </contour>
    <contour>
      <point x="816.872" y="217.128" type="line"/>
      <point x="702.2399999999999" y="331.76" type="line"/>
      <point x="641.6320000000001" y="271.152" type="line"/>
      <point x="756.2639999999999" y="156.51999999999998" type="line"/>
    </contour>
  </outline>
</glyph>
<glyph name="guillemotleft" format="2">
  <advance width="932.328"/>
  <unicode hex="00AB"/>
  <outline>
    <contour>
      <point x="245.584" y="619.68" type="line"/>
      <point x="245.584" y="424.32" type="line"/>
      <point x="483.888" y="954.8480000000001" type="line"/>
      <point x="463.296" y="969.7919999999999" type="line"/>
      <point x="34.376000000000005" y="530.944" type="line"/>
      <point x="34.376000000000005" y="513.056" type="line"/>
      <point x="463.296" y="74.208" type="line"/>
      <point x="483.888" y="89.152" type="line"/>
    </contour>
    <contour>
      <point x="627.632" y="619.68" type="line"/>
      <point x="627.632" y="424.32" type="line"/>
      <point x="865.584" y="954.8480000000001" type="line"/>
      <point x="845.3439999999999" y="969.7919999999999" type="line"/>
      <point x="416.072" y="530.944" type="line"/>
      <point x="416.072" y="513.056" type="line"/>
      <point x="845.3439999999999" y="74.208" type="line"/>
      <point x="865.584" y="89.152" type="line"/>
    </contour>
  </outline>
</glyph>
<glyph name="paragraph" format="2">
  <advance width="1216.96"/>
  <unicode hex="00B6"/>
  <outline>
    <contour>
      <point x="711.72" y="1430.0" type="line"/>
      <point x="468.072" y="1430.0" type="line" smooth="yes"/>
      <point x="169.296" y="1430.0"/>
      <point x="51.464" y="1258.632"/>
      <point x="51.464" y="1059.096" type="curve" smooth="yes"/>
      <point x="51.464" y="853.6160000000001"/>
      <point x="173.888" y="700.024"/>
      <point x="467.71999999999997" y="700.024" type="curve" smooth="yes"/>
      <point x="711.72" y="700.024" type="line"/>
    </contour>
    <contour>
      <point x="732.904" y="-218.0" type="line"/>
      <point x="732.904" y="1358.392" type="line"/>
      <point x="914.608" y="1358.392" type="line"/>
      <point x="914.608" y="1430.0" type="line"/>
      <point x="653.944" y="1430.0" type="line"/>
      <point x="653.944" y="-218.0" type="line"/>
    </contour>
    <contour>
      <point x="971.3280000000001" y="-218.0" type="line"/>
      <point x="971.3280000000001" y="1359.744" type="line"/>
      <point x="1158.2720000000002" y="1398.928" type="line"/>
      <point x="1158.2720000000002" y="1430.0" type="line"/>
      <point x="892.3679999999999" y="1430.0" type="line"/>
      <point x="892.3679999999999" y="-218.0" type="line"/>
    </contour>
  </outline>
</glyph>
<glyph name="uni00B9" format="2">
  <advance width="565.256"/>
  <unicode hex="00B9"/>
  <outline>
    <contour>
      <point x="199.00799999999998" y="725.016" type="line"/>
      <point x="66.912" y="690.7760000000001" type="line"/>
      <point x="66.912" y="662.0" type="line"/>
      <point x="542.976" y="662.0" type="line"/>
      <point x="542.976" y="690.7760000000001" type="line"/>
      <point x="424.23199999999997" y="725.016" type="line"/>
      <point x="424.23199999999997" y="1447.888" type="line"/>
      <point x="392.456" y="1447.888" type="line"/>
      <point x="16.744" y="1263.6879999999999" type="line"/>
      <point x="25.688" y="1229.0240000000001" type="line"/>
      <point x="339.736" y="1292.136" type="line"/>
      <point x="199.00799999999998" y="1333.336" type="line"/>
    </contour>
  </outline>
</glyph>
<glyph name="guillemotright" format="2">
  <advance width="1000.176"/>
  <unicode hex="00BB"/>
  <outline>
    <contour>
      <point x="327.76800000000003" y="425.32" type="line"/>
      <point x="327.76800000000003" y="620.328" type="line"/>
      <point x="89.816" y="90.152" type="line"/>
      <point x="110.056" y="74.856" type="line"/>
      <point x="539.328" y="513.7040000000001" type="line"/>
      <point x="539.328" y="531.944" type="line"/>
      <point x="110.056" y="970.7919999999999" type="line"/>
      <point x="89.816" y="955.496" type="line"/>
    </contour>
    <contour>
      <point x="713.688" y="425.32" type="line"/>
      <point x="713.688" y="620.328" type="line"/>
      <point x="475.736" y="90.152" type="line"/>
      <point x="495.976" y="74.856" type="line"/>
      <point x="925.2479999999999" y="513.7040000000001" type="line"/>
      <point x="925.2479999999999" y="531.944" type="line"/>
      <point x="495.976" y="970.7919999999999" type="line"/>
      <point x="475.736" y="955.496" type="line"/>
    </contour>
  </outline>
</glyph>
<glyph name="ccedilla" format="2">
  <advance width="1023.3520000000001"/>
  <unicode hex="00E7"/>
  <outline>
    <contour>
      <point x="631.4" y="1050.48" type="curve" smooth="yes"/>
      <point x="310.312" y="1050.48"/>
      <point x="55.559999999999995" y="813.0"/>
      <point x="55.559999999999995" y="492.704" type="curve" smooth="yes"/>
      <point x="55.559999999999995" y="164.48"/>
      <point x="254.688" y="-26.48"/>
      <point x="549.104" y="-26.48" type="curve" smooth="yes"/>
      <point x="731.3199999999999" y="-26.48"/>
      <point x="860.2800000000001" y="54.48"/>
      <point x="997.424" y="302.728" type="curve"/>
      <point x="973.352" y="323.448" type="line"/>
      <point x="884.376" y="231.8"/>
      <point x="804.9440000000001" y="202.056"/>
      <point x="693.76" y="202.056" type="curve" smooth="yes"/>
      <point x="494.568" y="202.056"/>
      <point x="384.23199999999997" y="326.096"/>
      <point x="384.23199999999997" y="660.448" type="curve" smooth="yes"/>
      <point x="384.23199999999997" y="902.344"/>
      <point x="451.24" y="983.872"/>
      <point x="549.936" y="983.872" type="curve" smooth="yes"/>
      <point x="674.9920000000001" y="983.872"/>
      <point x="816.336" y="744.216"/>
      <point x="851.76" y="744.216" type="curve" smooth="yes"/>
      <point x="918.0" y="744.216"/>
      <point x="979.68" y="793.88"/>
      <point x="979.68" y="869.192" type="curve" smooth="yes"/>
      <point x="979.68" y="955.616"/>
      <point x="887.552" y="1050.48"/>
    </contour>
    <contour>
      <point x="475.35999999999996" y="-465.0" type="curve" smooth="yes"/>
      <point x="624.968" y="-465.0"/>
      <point x="762.4079999999999" y="-370.688"/>
      <point x="762.4079999999999" y="-249.91200000000003" type="curve" smooth="yes"/>
      <point x="762.4079999999999" y="-179.432"/>
      <point x="725.408" y="-117.488"/>
      <point x="528.3199999999999" y="-71.432" type="curve"/>
      <point x="490.36" y="-182.256" type="line"/>
      <point x="666.592" y="39.144000000000005" type="line"/>
      <point x="603.856" y="39.144000000000005" type="line"/>
      <point x="406.92" y="-214.496" type="line"/>
      <point x="406.92" y="-219.496" type="line"/>
      <point x="591.768" y="-252.95999999999998"/>
      <point x="625.176" y="-295.72"/>
      <point x="625.176" y="-337.592" type="curve" smooth="yes"/>
      <point x="625.176" y="-384.40799999999996"/>
      <point x="589.6" y="-413.28"/>
      <point x="537.896" y="-413.28" type="curve" smooth="yes"/>
      <point x="474.728" y="-413.28"/>
      <point x="407.23199999999997" y="-324.32"/>
      <point x="391.232" y="-324.32" type="curve" smooth="yes"/>
      <point x="356.4" y="-324.32"/>
      <point x="339.456" y="-353.50399999999996"/>
      <point x="339.456" y="-383.04" type="curve" smooth="yes"/>
      <point x="339.456" y="-429.168"/>
      <point x="375.992" y="-465.0"/>
    </contour>
  </outline>
</glyph>
<glyph name="divide" format="2">
  <advance width="1150.0"/>
  <unicode hex="00F7"/>
  <outline>
    <contour>
      <point x="575.0" y="271.904" type="curve" smooth="yes"/>
      <point x="506.28000000000003" y="271.904"/>
      <point x="456.448" y="218.424"/>
      <point x="456.448" y="154.0" type="curve" smooth="yes"/>
      <point x="456.448" y="89.57600000000001"/>
      <point x="506.28000000000003" y="37.096000000000004"/>
      <point x="575.0" y="37.096000000000004" type="curve" smooth="yes"/>
      <point x="643.72" y="37.096000000000004"/>
      <point x="693.552" y="89.57600000000001"/>
      <point x="693.552" y="154.0" type="curve" smooth="yes"/>
      <point x="693.552" y="218.424"/>
      <point x="643.72" y="271.904"/>
    </contour>
    <contour>
      <point x="575.0" y="986.9040000000001" type="curve" smooth="yes"/>
      <point x="506.28000000000003" y="986.9040000000001"/>
      <point x="456.448" y="934.4240000000001"/>
      <point x="456.448" y="870.0" type="curve" smooth="yes"/>
      <point x="456.448" y="805.5759999999999"/>
      <point x="506.28000000000003" y="752.448"/>
      <point x="575.0" y="752.448" type="curve" smooth="yes"/>
      <point x="643.72" y="752.448"/>
      <point x="693.552" y="805.5759999999999"/>
      <point x="693.552" y="870.0" type="curve" smooth="yes"/>
      <point x="693.552" y="934.4240000000001"/>
      <point x="643.72" y="986.9040000000001"/>
    </contour>
    <contour>
      <point x="164.0" y="554.72" type="line"/>
      <point x="164.0" y="469.28000000000003" type="line"/>
      <point x="986.0" y="469.28000000000003" type="line"/>
      <point x="986.0" y="554.72" type="line"/>
    </contour>
  </outline>
</glyph>
<glyph name="Aogonek" format="2">
  <advance width="1577.7679999999998"/>
  <unicode hex="0104"/>
  <outline>
    <contour>
      <point x="324.55999999999995" y="480.48" type="line"/>
      <point x="1028.968" y="480.48" type="line"/>
      <point x="1028.968" y="559.9200000000001" type="line"/>
      <point x="324.55999999999995" y="559.9200000000001" type="line"/>
    </contour>
    <contour>
      <point x="1465.304" y="84.96000000000001" type="line"/>
      <point x="871.6320000000001" y="1437.04" type="line"/>
      <point x="654.7840000000001" y="1437.04" type="line"/>
      <point x="127.52" y="83.888" type="line"/>
      <point x="-25.479999999999997" y="33.536" type="line"/>
      <point x="-25.479999999999997" y="0.0" type="line"/>
      <point x="395.18399999999997" y="0.0" type="line"/>
      <point x="395.18399999999997" y="33.536" type="line"/>
      <point x="215.55200000000002" y="80.888" type="line"/>
      <point x="633.984" y="1186.4479999999999" type="line"/>
      <point x="572.048" y="1155.3439999999998" type="line"/>
      <point x="1035.76" y="82.96000000000001" type="line"/>
      <point x="864.128" y="34.832" type="line"/>
      <point x="864.128" y="0.0" type="line"/>
      <point x="1621.304" y="0.0" type="line"/>
      <point x="1621.304" y="34.832" type="line"/>
    </contour>
    <contour>
      <point x="1259.7520000000002" y="-35.08" type="curve" smooth="yes"/>
      <point x="1344.6" y="89.608" type="line"/>
      <point x="1314.768" y="89.608" type="line"/>
      <point x="1171.68" y="-61.656" type="line" smooth="yes"/>
      <point x="1036.3200000000002" y="-199.96800000000002"/>
      <point x="1009.9519999999999" y="-262.8"/>
      <point x="1009.9519999999999" y="-325.928" type="curve" smooth="yes"/>
      <point x="1009.9519999999999" y="-402.76000000000005"/>
      <point x="1057.656" y="-465.0"/>
      <point x="1169.32" y="-465.0" type="curve" smooth="yes"/>
      <point x="1241.856" y="-465.0"/>
      <point x="1296.928" y="-436.408"/>
      <point x="1398.5919999999999" y="-317.56" type="curve"/>
      <point x="1385.0" y="-295.728" type="line"/>
      <point x="1325.872" y="-340.968"/>
      <point x="1290.224" y="-345.376"/>
      <point x="1259.8159999999998" y="-345.376" type="curve" smooth="yes"/>
      <point x="1196.112" y="-345.376"/>
      <point x="1158.464" y="-313.024"/>
      <point x="1158.464" y="-259.616" type="curve" smooth="yes"/>
      <point x="1158.464" y="-211.79999999999998"/>
      <point x="1175.872" y="-151.648"/>
    </contour>
  </outline>
</glyph>
<glyph name="dcroat" format="2">
  <advance width="1274.536"/>
  <unicode hex="0111"/>
  <outline>
    <contour>
      <point x="771.976" y="814.4159999999999" type="curve" smooth="yes"/>
      <point x="771.976" y="137.976" type="line"/>
      <point x="790.7679999999999" y="-37.016000000000005" type="line"/>
      <point x="811.3199999999999" y="-37.016000000000005" type="line"/>
      <point x="1266.608" y="43.512" type="line"/>
      <point x="1266.608" y="71.344" type="line"/>
      <point x="1224.608" y="95.69985720103163"/>
      <point x="1144.568" y="140.8663673136962"/>
      <point x="1120.568" y="154.784" type="curve"/>
      <point x="1120.568" y="1294.656" type="line"/>
      <point x="1125.496" y="1490.48" type="line"/>
      <point x="1106.9440000000002" y="1490.48" type="line"/>
      <point x="609.624" y="1381.0800000000002" type="line"/>
      <point x="609.624" y="1353.36" type="line"/>
      <point x="666.6239999999999" y="1306.6311901840493"/>
      <point x="747.976" y="1240.0672883435582"/>
      <point x="771.976" y="1220.392" type="curve"/>
      <point x="771.976" y="961.568" type="line"/>
      <point x="1013.544" y="971.4240000000001" type="line"/>
      <point x="902.288" y="1026.776"/>
      <point x="776.232" y="1050.48"/>
      <point x="649.5120000000001" y="1050.48" type="curve" smooth="yes"/>
      <point x="307.776" y="1050.48"/>
      <point x="57.504" y="839.3679999999999"/>
      <point x="57.504" y="462.648" type="curve" smooth="yes"/>
      <point x="57.504" y="169.112"/>
      <point x="221.56" y="-26.48"/>
      <point x="480.968" y="-26.48" type="curve" smooth="yes"/>
      <point x="598.096" y="-26.48"/>
      <point x="677.568" y="12.672"/>
      <point x="830.312" y="203.968" type="curve"/>
      <point x="825.032" y="233.04" type="line"/>
      <point x="775.56" y="180.80800000000002"/>
      <point x="713.608" y="158.47199999999998"/>
      <point x="642.08" y="158.47199999999998" type="curve" smooth="yes"/>
      <point x="488.752" y="158.47199999999998"/>
      <point x="418.096" y="261.832"/>
      <point x="418.096" y="556.256" type="curve" smooth="yes"/>
      <point x="418.096" y="870.64"/>
      <point x="494.45599999999996" y="986.28"/>
      <point x="619.8240000000001" y="986.28" type="curve" smooth="yes"/>
      <point x="714.168" y="986.28"/>
      <point x="771.976" y="920.792"/>
    </contour>
    <contour>
      <point x="483.48" y="1120.192" type="line"/>
      <point x="1293.8319999999999" y="1120.192" type="line"/>
      <point x="1293.8319999999999" y="1195.856" type="line"/>
      <point x="483.48" y="1195.856" type="line"/>
    </contour>
  </outline>
</glyph>
<glyph name="eogonek" format="2">
  <advance width="1053.096"/>
  <unicode hex="0119"/>
  <outline>
    <contour>
      <point x="1016.464" y="309.208" type="line"/>
      <point x="992.0400000000001" y="329.928" type="line"/>
      <point x="901.712" y="235.04"/>
      <point x="816.984" y="202.056"/>
      <point x="708.928" y="202.056" type="curve" smooth="yes"/>
      <point x="496.2" y="202.056"/>
      <point x="385.52799999999996" y="322.856"/>
      <point x="385.52799999999996" y="631.936" type="curve" smooth="yes"/>
      <point x="385.52799999999996" y="896.952"/>
      <point x="444.296" y="981.3919999999999"/>
      <point x="549.92" y="981.3919999999999" type="curve" smooth="yes"/>
      <point x="635.576" y="981.3919999999999"/>
      <point x="676.544" y="905.424"/>
      <point x="689.12" y="660.6160000000001" type="curve"/>
      <point x="847.4720000000001" y="710.3359999999999" type="line"/>
      <point x="321.392" y="710.336" type="line"/>
      <point x="321.392" y="630.952" type="line"/>
      <point x="998.944" y="630.952" type="line"/>
      <point x="979.0" y="895.8"/>
      <point x="837.872" y="1050.48"/>
      <point x="583.808" y="1050.48" type="curve" smooth="yes"/>
      <point x="239.336" y="1050.48"/>
      <point x="56.855999999999995" y="790.3520000000001"/>
      <point x="56.855999999999995" y="491.408" type="curve" smooth="yes"/>
      <point x="56.855999999999995" y="163.832"/>
      <point x="258.44800000000004" y="-26.48"/>
      <point x="556.3839999999999" y="-26.48" type="curve" smooth="yes"/>
      <point x="693.064" y="-26.48"/>
      <point x="801.616" y="19.184"/>
      <point x="906.168" y="144.824" type="curve"/>
      <point x="894.632" y="158.952" type="line"/>
      <point x="850.072" y="91.872" type="line" smooth="yes"/>
      <point x="718.224" y="-109.12"/>
      <point x="635.768" y="-205.78400000000002"/>
      <point x="635.768" y="-311.872" type="curve" smooth="yes"/>
      <point x="635.768" y="-404.76000000000005"/>
      <point x="700.3040000000001" y="-465.0"/>
      <point x="810.9119999999999" y="-465.0" type="curve" smooth="yes"/>
      <point x="886.616" y="-465.0"/>
      <point x="941.688" y="-436.408"/>
      <point x="1043.352" y="-317.56" type="curve"/>
      <point x="1029.76" y="-295.728" type="line"/>
      <point x="977.112" y="-336.432"/>
      <point x="944.056" y="-345.376"/>
      <point x="904.576" y="-345.376" type="curve" smooth="yes"/>
      <point x="829.816" y="-345.376"/>
      <point x="784.984" y="-306.8"/>
      <point x="784.984" y="-227.912" type="curve" smooth="yes"/>
      <point x="784.984" y="-157.856"/>
      <point x="818.224" y="-50.656"/>
      <point x="925.072" y="143.81600000000003" type="curve" smooth="yes"/>
    </contour>
  </outline>
</glyph>
<glyph name="Hbar" format="2">
  <advance width="1784.5439999999999"/>
  <unicode hex="0126"/>
  <outline>
    <contour>
      <point x="613.76" y="80.72" type="line"/>
      <point x="613.76" y="1350.28" type="line"/>
      <point x="769.432" y="1394.52" type="line"/>
      <point x="769.432" y="1430.0" type="line"/>
      <point x="56.391999999999996" y="1430.0" type="line"/>
      <point x="56.391999999999996" y="1394.52" type="line"/>
      <point x="212.064" y="1350.28" type="line"/>
      <point x="212.064" y="80.72" type="line"/>
      <point x="56.391999999999996" y="34.832" type="line"/>
      <point x="56.391999999999996" y="0.0" type="line"/>
      <point x="769.432" y="0.0" type="line"/>
      <point x="769.432" y="34.832" type="line"/>
    </contour>
    <contour>
      <point x="1572.48" y="80.72" type="line"/>
      <point x="1572.48" y="1350.28" type="line"/>
      <point x="1728.152" y="1394.52" type="line"/>
      <point x="1728.152" y="1430.0" type="line"/>
      <point x="1015.112" y="1430.0" type="line"/>
      <point x="1015.112" y="1394.52" type="line"/>
      <point x="1170.784" y="1350.28" type="line"/>
      <point x="1170.784" y="80.72" type="line"/>
      <point x="1015.112" y="34.832" type="line"/>
      <point x="1015.112" y="0.0" type="line"/>
      <point x="1728.152" y="0.0" type="line"/>
      <point x="1728.152" y="34.832" type="line"/>
    </contour>
    <contour>
      <point x="56.391999999999996" y="1046.9279999999999" type="line"/>
      <point x="1728.152" y="1046.9279999999999" type="line"/>
      <point x="1728.152" y="1130.368" type="line"/>
      <point x="56.391999999999996" y="1130.368" type="line"/>
    </contour>
    <contour>
      <point x="398.448" y="698.336" type="line"/>
      <point x="1383.096" y="698.336" type="line"/>
      <point x="1383.096" y="784.256" type="line"/>
      <point x="398.448" y="784.256" type="line"/>
    </contour>
  </outline>
</glyph>
<glyph name="Iogonek" format="2">
  <advance width="821.824"/>
  <unicode hex="012E"/>
  <outline>
    <contour>
      <point x="767.432" y="34.832" type="line"/>
      <point x="611.76" y="80.72" type="line"/>
      <point x="611.76" y="1350.28" type="line"/>
      <point x="767.432" y="1394.52" type="line"/>
      <point x="767.432" y="1430.0" type="line"/>
      <point x="54.392" y="1430.0" type="line"/>
      <point x="54.392" y="1394.52" type="line"/>
      <point x="210.06400000000002" y="1350.28" type="line"/>
      <point x="210.06400000000002" y="80.72" type="line"/>
      <point x="54.392" y="34.832" type="line"/>
      <point x="54.392" y="0.0" type="line"/>
      <point x="767.432" y="0.0" type="line"/>
    </contour>
    <contour>
      <point x="435.816" y="-34.432" type="curve" smooth="yes"/>
      <point x="495.0" y="89.608" type="line"/>
      <point x="465.168" y="89.608" type="line"/>
      <point x="355.744" y="-62.007999999999996" type="line" smooth="yes"/>
      <point x="245.768" y="-210.952"/>
      <point x="218.45600000000002" y="-265.968"/>
      <point x="218.45600000000002" y="-325.928" type="curve" smooth="yes"/>
      <point x="218.45600000000002" y="-402.76000000000005"/>
      <point x="266.16" y="-465.0"/>
      <point x="377.824" y="-465.0" type="curve" smooth="yes"/>
      <point x="450.36" y="-465.0"/>
      <point x="505.432" y="-436.408"/>
      <point x="607.096" y="-317.56" type="curve"/>
      <point x="593.504" y="-295.728" type="line"/>
      <point x="534.376" y="-340.968"/>
      <point x="498.728" y="-345.376"/>
      <point x="468.32" y="-345.376" type="curve" smooth="yes"/>
      <point x="405.67199999999997" y="-345.376"/>
      <point x="366.968" y="-312.32"/>
      <point x="366.968" y="-257.152" type="curve" smooth="yes"/>
      <point x="366.968" y="-213.20799999999997"/>
      <point x="372.912" y="-164.50400000000002"/>
    </contour>
  </outline>
</glyph>
<glyph name="Eng" format="2">
  <advance width="1534.0240000000001"/>
  <unicode hex="014A"/>
  <outline>
    <contour>
      <point x="1292.8" y="550.752" type="line"/>
      <point x="631.072" y="1430.0" type="line"/>
      <point x="22.247999999999998" y="1430.0" type="line"/>
      <point x="22.247999999999998" y="1400.352" type="line"/>
      <point x="220.6" y="1324.56" type="line"/>
      <point x="220.6" y="79.424" type="line"/>
      <point x="58.448" y="34.832" type="line"/>
      <point x="58.448" y="0.0" type="line"/>
      <point x="462.91999999999996" y="0.0" type="line"/>
      <point x="462.91999999999996" y="34.832" type="line"/>
      <point x="291.13599999999997" y="79.424" type="line"/>
      <point x="291.13599999999997" y="1326.952" type="line"/>
      <point x="259.248" y="1321.352" type="line"/>
      <point x="1284.0" y="-36.848" type="line"/>
    </contour>
    <contour>
      <point x="1333.664" y="25.112000000000002" type="curve" smooth="yes"/>
      <point x="1333.664" y="1349.9279999999999" type="line"/>
      <point x="1495.816" y="1394.52" type="line"/>
      <point x="1495.816" y="1430.0" type="line"/>
      <point x="1091.344" y="1430.0" type="line"/>
      <point x="1091.344" y="1394.52" type="line"/>
      <point x="1263.128" y="1349.9279999999999" type="line"/>
      <point x="1263.128" y="34.68" type="line" smooth="yes"/>
      <point x="1263.128" y="-218.56"/>
      <point x="1173.8480000000002" y="-297.744"/>
      <point x="1073.6239999999998" y="-297.744" type="curve" smooth="yes"/>
      <point x="979.312" y="-297.744"/>
      <point x="907.7199999999999" y="-220.656"/>
      <point x="883.944" y="-220.656" type="curve" smooth="yes"/>
      <point x="830.912" y="-220.656"/>
      <point x="782.8399999999999" y="-265.20799999999997"/>
      <point x="782.8399999999999" y="-333.52000000000004" type="curve" smooth="yes"/>
      <point x="782.8399999999999" y="-408.184"/>
      <point x="840.3919999999999" y="-465.0"/>
      <point x="956.9839999999999" y="-465.0" type="curve" smooth="yes"/>
      <point x="1167.48" y="-465.0"/>
      <point x="1333.664" y="-319.704"/>
    </contour>
  </outline>
</glyph>
<glyph name="OE" format="2">
  <advance width="2359.072"/>
  <unicode hex="0152"/>
  <outline>
    <contour>
      <point x="1931.76" y="1064.92" type="line"/>
      <point x="1903.28" y="1064.92" type="line"/>
      <point x="1774.136" y="801.552" type="line"/>
      <point x="1398.1680000000001" y="775.496" type="line"/>
      <point x="1398.1680000000001" y="718.152" type="line"/>
      <point x="1774.136" y="694.8000000000001" type="line"/>
      <point x="1903.28" y="429.08" type="line"/>
      <point x="1931.76" y="429.08" type="line"/>
      <point x="1884.8" y="746.0" type="line"/>
    </contour>
    <contour>
      <point x="1105.016" y="1430.0" type="line"/>
      <point x="1105.016" y="0.0" type="line"/>
      <point x="1506.712" y="0.0" type="line"/>
      <point x="1506.712" y="1430.0" type="line"/>
    </contour>
    <contour>
      <point x="926.144" y="0.0" type="curve" smooth="yes"/>
      <point x="2052.52" y="0.0" type="line"/>
      <point x="2187.6479999999997" y="-72.792" type="line"/>
      <point x="2209.904" y="-72.792" type="line"/>
      <point x="2331.4559999999997" y="457.856" type="line"/>
      <point x="2293.496" y="467.44800000000004" type="line"/>
      <point x="2016.264" y="47.312000000000005" type="line"/>
      <point x="2164.432" y="85.92" type="line"/>
      <point x="985.088" y="85.92" type="line" smooth="yes"/>
      <point x="674.616" y="85.92"/>
      <point x="483.608" y="283.072"/>
      <point x="483.608" y="704.296" type="curve" smooth="yes"/>
      <point x="483.608" y="1164.152"/>
      <point x="676.3199999999999" y="1344.0800000000002"/>
      <point x="954.92" y="1344.0800000000002" type="curve" smooth="yes"/>
      <point x="2137.0080000000003" y="1344.0800000000002" type="line"/>
      <point x="1972.9920000000002" y="1389.464" type="line"/>
      <point x="2226.48" y="983.288" type="line"/>
      <point x="2260.552" y="993.8799999999999" type="line"/>
      <point x="2169.576" y="1506.68" type="line"/>
      <point x="2153.152" y="1506.68" type="line"/>
      <point x="2008.4879999999998" y="1430.0" type="line"/>
      <point x="912.144" y="1430.0" type="line" smooth="yes"/>
      <point x="457.144" y="1430.0"/>
      <point x="74.264" y="1177.0"/>
      <point x="74.264" y="682.0" type="curve" smooth="yes"/>
      <point x="74.264" y="248.0"/>
      <point x="408.496" y="0.0"/>
    </contour>
  </outline>
</glyph>
<glyph name="scedilla" format="2">
  <advance width="919.648"/>
  <unicode hex="015F"/>
  <outline>
    <contour>
      <point x="497.696" y="1050.48" type="curve" smooth="yes"/>
      <point x="266.28000000000003" y="1050.48"/>
      <point x="79.60000000000001" y="925.912"/>
      <point x="79.60000000000001" y="710.976" type="curve" smooth="yes"/>
      <point x="79.60000000000001" y="557.24"/>
      <point x="165.464" y="465.424"/>
      <point x="362.70399999999995" y="407.328" type="curve" smooth="yes"/>
      <point x="559.9440000000001" y="348.584"/>
      <point x="616.8879999999999" y="292.304"/>
      <point x="616.8879999999999" y="202.32" type="curve" smooth="yes"/>
      <point x="616.8879999999999" y="85.168"/>
      <point x="530.272" y="29.239999999999995"/>
      <point x="413.736" y="29.239999999999995" type="curve" smooth="yes"/>
      <point x="346.848" y="29.239999999999995"/>
      <point x="277.776" y="46.944"/>
      <point x="222.536" y="85.592" type="curve"/>
      <point x="283.552" y="28.056" type="line"/>
      <point x="93.57600000000001" y="349.816" type="line"/>
      <point x="56.632000000000005" y="349.816" type="line"/>
      <point x="111.04" y="28.984" type="line"/>
      <point x="179.208" y="-5.184"/>
      <point x="271.464" y="-26.48"/>
      <point x="405.21599999999995" y="-26.48" type="curve" smooth="yes"/>
      <point x="673.72" y="-26.48"/>
      <point x="862.976" y="123.96"/>
      <point x="862.976" y="339.232" type="curve" smooth="yes"/>
      <point x="862.976" y="503.152"/>
      <point x="792.424" y="618.4639999999999"/>
      <point x="569.8159999999999" y="685.208" type="curve" smooth="yes"/>
      <point x="346.856" y="751.952"/>
      <point x="322.096" y="800.88"/>
      <point x="322.096" y="867.976" type="curve" smooth="yes"/>
      <point x="322.096" y="952.776"/>
      <point x="382.616" y="994.816"/>
      <point x="499.264" y="994.816" type="curve" smooth="yes"/>
      <point x="574.6" y="994.816"/>
      <point x="637.264" y="970.7040000000001"/>
      <point x="711.208" y="905.3679999999999" type="curve"/>
      <point x="620.248" y="992.7760000000001" type="line"/>
      <point x="784.24" y="721.072" type="line"/>
      <point x="815.8879999999999" y="721.072" type="line"/>
      <point x="774.5200000000001" y="1000.2560000000001" type="line"/>
      <point x="686.8" y="1033.72"/>
      <point x="610.08" y="1050.48"/>
    </contour>
    <contour>
      <point x="362.896" y="-465.0" type="curve" smooth="yes"/>
      <point x="512.504" y="-465.0"/>
      <point x="649.944" y="-370.688"/>
      <point x="649.944" y="-249.91200000000003" type="curve" smooth="yes"/>
      <point x="649.944" y="-179.432"/>
      <point x="612.944" y="-117.488"/>
      <point x="415.85600000000005" y="-71.432" type="curve"/>
      <point x="377.896" y="-182.256" type="line"/>
      <point x="554.128" y="39.144000000000005" type="line"/>
      <point x="491.392" y="39.144000000000005" type="line"/>
      <point x="294.456" y="-214.496" type="line"/>
      <point x="294.456" y="-219.496" type="line"/>
      <point x="479.304" y="-252.95999999999998"/>
      <point x="512.712" y="-295.72"/>
      <point x="512.712" y="-337.592" type="curve" smooth="yes"/>
      <point x="512.712" y="-384.40799999999996"/>
      <point x="477.13599999999997" y="-413.28"/>
      <point x="425.43199999999996" y="-413.28" type="curve" smooth="yes"/>
      <point x="362.264" y="-413.28"/>
      <point x="294.768" y="-324.32"/>
      <point x="278.76800000000003" y="-324.32" type="curve" smooth="yes"/>
      <point x="243.93599999999998" y="-324.32"/>
      <point x="226.99200000000002" y="-353.50399999999996"/>
      <point x="226.99200000000002" y="-383.04" type="curve" smooth="yes"/>
      <point x="226.99200000000002" y="-429.168"/>
      <point x="263.528" y="-465.0"/>
    </contour>
  </outline>
</glyph>
<glyph name="tbar" format="2">
  <advance width="883.168"/>
  <unicode hex="0167"/>
  <outline>
    <contour>
      <point x="37.168" y="520.576" type="line"/>
      <point x="788.8" y="520.576" type="line"/>
      <point x="788.8" y="596.24" type="line"/>
      <point x="37.168" y="596.24" type="line"/>
    </contour>
    <contour>
      <point x="518.24" y="306.712" type="curve" smooth="yes"/>
      <point x="518.24" y="996.4240000000001" type="line"/>
      <point x="518.24" y="1247.504" type="line"/>
      <point x="499.52" y="1247.504" type="line"/>
      <point x="327.52771704180066" y="1149.5040000000001"/>
      <point x="54.69051250082026" y="998.984"/>
      <point x="16.080000000000002" y="976.984" type="curve"/>
      <point x="16.080000000000002" y="952.616" type="line"/>
      <point x="170.94400000000002" y="829.904" type="line"/>
      <point x="170.94400000000002" y="280.12" type="line" smooth="yes"/>
      <point x="170.94400000000002" y="68.848"/>
      <point x="287.368" y="-26.832"/>
      <point x="468.76" y="-26.832" type="curve" smooth="yes"/>
      <point x="588.216" y="-26.832"/>
      <point x="687.7439999999999" y="12.592"/>
      <point x="898.368" y="161.47199999999998" type="curve"/>
      <point x="898.368" y="206.32" type="line"/>
      <point x="805.8879999999999" y="182.264"/>
      <point x="742.0" y="175.208"/>
      <point x="680.76" y="175.208" type="curve" smooth="yes"/>
      <point x="572.28" y="175.208"/>
      <point x="518.24" y="218.07999999999998"/>
    </contour>
    <contour>
      <point x="384.312" y="868.696" type="line"/>
      <point x="842.056" y="868.696" type="line"/>
      <point x="862.5920000000001" y="1024.0" type="line"/>
      <point x="384.312" y="1024.0" type="line"/>
    </contour>
  </outline>
</glyph>
<glyph name="Uogonek" format="2">
  <advance width="1638.2640000000001"/>
  <unicode hex="0172"/>
  <outline>
    <contour>
      <point x="1381.536" y="585.92" type="line" smooth="yes"/>
      <point x="1381.536" y="276.51200000000006"/>
      <point x="1232.368" y="162.8"/>
      <point x="972.6959999999999" y="162.8" type="curve" smooth="yes"/>
      <point x="711.096" y="162.8"/>
      <point x="576.112" y="285.288"/>
      <point x="576.112" y="573.608" type="curve" smooth="yes"/>
      <point x="576.112" y="1350.28" type="line"/>
      <point x="731.7840000000001" y="1394.52" type="line"/>
      <point x="731.7840000000001" y="1430.0" type="line"/>
      <point x="18.744" y="1430.0" type="line"/>
      <point x="18.744" y="1394.52" type="line"/>
      <point x="174.416" y="1350.28" type="line"/>
      <point x="174.416" y="583.24" type="line" smooth="yes"/>
      <point x="174.416" y="173.336"/>
      <point x="403.504" y="-26.48"/>
      <point x="843.656" y="-26.48" type="curve" smooth="yes"/>
      <point x="1230.224" y="-26.48"/>
      <point x="1462.44" y="164.56"/>
      <point x="1462.44" y="570.216" type="curve" smooth="yes"/>
      <point x="1462.44" y="1349.9279999999999" type="line"/>
      <point x="1618.112" y="1394.52" type="line"/>
      <point x="1618.112" y="1430.0" type="line"/>
      <point x="1216.232" y="1430.0" type="line"/>
      <point x="1216.232" y="1394.52" type="line"/>
      <point x="1381.536" y="1349.9279999999999" type="line"/>
    </contour>
    <contour>
      <point x="974.608" y="-35.08" type="curve" smooth="yes"/>
      <point x="1071.072" y="89.608" type="line"/>
      <point x="1041.24" y="89.608" type="line"/>
      <point x="885.832" y="-62.007999999999996" type="line" smooth="yes"/>
      <point x="740.264" y="-199.616"/>
      <point x="711.08" y="-262.8"/>
      <point x="711.08" y="-325.928" type="curve" smooth="yes"/>
      <point x="711.08" y="-402.76000000000005"/>
      <point x="757.024" y="-465.0"/>
      <point x="868.688" y="-465.0" type="curve" smooth="yes"/>
      <point x="941.2239999999999" y="-465.0"/>
      <point x="996.2959999999999" y="-436.408"/>
      <point x="1097.96" y="-317.56" type="curve"/>
      <point x="1084.368" y="-295.728" type="line"/>
      <point x="1025.24" y="-340.968"/>
      <point x="989.592" y="-345.376"/>
      <point x="959.184" y="-345.376" type="curve" smooth="yes"/>
      <point x="896.536" y="-345.376"/>
      <point x="859.592" y="-312.32"/>
      <point x="859.592" y="-259.616" type="curve" smooth="yes"/>
      <point x="859.592" y="-213.20799999999997"/>
      <point x="875.592" y="-161.15200000000002"/>
    </contour>
  </outline>
</glyph>
<glyph name="Ohorn" format="2">
  <advance width="1642.952"/>
  <unicode hex="01A0"/>
  <anchor x="827.216" y="1430.0" name="UCtop"/>
  <anchor x="827.216" y="0.0" name="bottom"/>
  <outline>
    <contour>
      <point x="841.696" y="46.792" type="curve" smooth="yes"/>
      <point x="614.384" y="46.792"/>
      <point x="479.608" y="307.496"/>
      <point x="479.608" y="783.936" type="curve" smooth="yes"/>
      <point x="479.608" y="1212.5040000000001"/>
      <point x="616.656" y="1383.5600000000002"/>
      <point x="811.736" y="1383.5600000000002" type="curve" smooth="yes"/>
      <point x="1038.344" y="1383.5600000000002"/>
      <point x="1173.472" y="1122.504"/>
      <point x="1173.472" y="646.064" type="curve" smooth="yes"/>
      <point x="1173.472" y="217.848"/>
      <point x="1036.424" y="46.792"/>
    </contour>
    <contour>
      <point x="846.304" y="1456.48" type="curve" smooth="yes"/>
      <point x="398.72" y="1456.48"/>
      <point x="73.264" y="1140.76"/>
      <point x="73.264" y="697.152" type="curve" smooth="yes"/>
      <point x="73.264" y="267.448"/>
      <point x="382.87199999999996" y="-26.48"/>
      <point x="807.832" y="-26.48" type="curve" smooth="yes"/>
      <point x="1254.712" y="-26.48"/>
      <point x="1580.168" y="289.24"/>
      <point x="1580.168" y="733.552" type="curve" smooth="yes"/>
      <point x="1580.168" y="1011.112"/>
      <point x="1451.072" y="1250.448"/>
      <point x="1203.016" y="1375.2240000000002" type="curve"/>
      <point x="1203.016" y="1362.576" type="line"/>
      <point x="1438.944" y="1355.536"/>
      <point x="1547.096" y="1462.8880000000001"/>
      <point x="1547.096" y="1613.4080000000001" type="curve" smooth="yes"/>
      <point x="1547.096" y="1709.904"/>
      <point x="1500.672" y="1762.384"/>
      <point x="1420.712" y="1762.384" type="curve" smooth="yes"/>
      <point x="1354.992" y="1762.384"/>
      <point x="1305.144" y="1719.904"/>
      <point x="1305.144" y="1673.3519999999999" type="curve" smooth="yes"/>
      <point x="1305.144" y="1656.816"/>
      <point x="1359.624" y="1615.0559999999998"/>
      <point x="1359.624" y="1545.76" type="curve" smooth="yes"/>
      <point x="1359.624" y="1475.0"/>
      <point x="1305.328" y="1424.72"/>
      <point x="1180.176" y="1424.72" type="curve" smooth="yes"/>
      <point x="1065.048" y="1424.72"/>
      <point x="995.064" y="1456.48"/>
    </contour>
  </outline>
</glyph>
<glyph name="ohorn" format="2">
  <advance width="1184.432"/>
  <unicode hex="01A1"/>
  <anchor x="596.384" y="1024.0" name="top"/>
  <anchor x="596.384" y="0.0" name="bottom"/>
  <outline>
    <contour>
      <point x="594.5120000000001" y="40.2" type="curve" smooth="yes"/>
      <point x="461.53600000000006" y="40.2"/>
      <point x="418.56" y="208.20000000000002"/>
      <point x="418.56" y="538.92" type="curve" smooth="yes"/>
      <point x="418.56" y="851.144"/>
      <point x="466.128" y="983.152"/>
      <point x="592.736" y="983.152" type="curve" smooth="yes"/>
      <point x="725.712" y="983.152"/>
      <point x="768.688" y="815.8000000000001"/>
      <point x="768.688" y="485.08" type="curve" smooth="yes"/>
      <point x="768.688" y="172.208"/>
      <point x="721.12" y="40.2"/>
    </contour>
    <contour>
      <point x="1164.536" y="1206.7040000000002" type="curve" smooth="yes"/>
      <point x="1164.536" y="1303.2"/>
      <point x="1118.112" y="1355.68"/>
      <point x="1038.152" y="1355.68" type="curve" smooth="yes"/>
      <point x="972.432" y="1355.68"/>
      <point x="922.5840000000001" y="1313.2"/>
      <point x="922.584" y="1266.648" type="curve" smooth="yes"/>
      <point x="922.584" y="1250.1119999999999"/>
      <point x="977.0640000000001" y="1208.3519999999999"/>
      <point x="977.0640000000001" y="1139.056" type="curve" smooth="yes"/>
      <point x="977.0640000000001" y="1072.2959999999998"/>
      <point x="927.416" y="1025.48"/>
      <point x="829.12" y="1025.48" type="curve" smooth="yes"/>
      <point x="765.1759999999999" y="1025.48"/>
      <point x="702.16" y="1050.48"/>
      <point x="605.1039999999999" y="1050.48" type="curve" smooth="yes"/>
      <point x="290.168" y="1050.48"/>
      <point x="55.504" y="828.8879999999999"/>
      <point x="55.504" y="508.464" type="curve" smooth="yes"/>
      <point x="55.504" y="192.576"/>
      <point x="271.264" y="-26.48"/>
      <point x="582.144" y="-26.48" type="curve" smooth="yes"/>
      <point x="892.3760000000001" y="-26.48"/>
      <point x="1132.392" y="194.112"/>
      <point x="1132.392" y="515.5360000000001" type="curve" smooth="yes"/>
      <point x="1132.392" y="720.464"/>
      <point x="1041.52" y="899.112"/>
      <point x="873.0" y="986.52" type="curve"/>
      <point x="873.0" y="974.576" type="line"/>
      <point x="1068.96" y="971.0"/>
      <point x="1164.536" y="1075.424"/>
    </contour>
  </outline>
</glyph>
<glyph name="uni01EA" format="2">
  <advance width="1653.432"/>
  <unicode hex="01EA"/>
  <outline>
    <contour>
      <point x="846.304" y="1456.48" type="curve" smooth="yes"/>
      <point x="398.72" y="1456.48"/>
      <point x="73.264" y="1140.76"/>
      <point x="73.264" y="697.152" type="curve" smooth="yes"/>
      <point x="73.264" y="267.448"/>
      <point x="382.87199999999996" y="-26.48"/>
      <point x="807.832" y="-26.48" type="curve" smooth="yes"/>
      <point x="1254.712" y="-26.48"/>
      <point x="1580.168" y="289.24"/>
      <point x="1580.168" y="733.552" type="curve" smooth="yes"/>
      <point x="1580.168" y="1162.552"/>
      <point x="1270.56" y="1456.48"/>
    </contour>
    <contour>
      <point x="841.696" y="46.792" type="curve" smooth="yes"/>
      <point x="614.384" y="46.792"/>
      <point x="479.608" y="307.496"/>
      <point x="479.608" y="783.936" type="curve" smooth="yes"/>
      <point x="479.608" y="1212.5040000000001"/>
      <point x="616.656" y="1383.5600000000002"/>
      <point x="811.736" y="1383.5600000000002" type="curve" smooth="yes"/>
      <point x="1038.344" y="1383.5600000000002"/>
      <point x="1173.472" y="1122.504"/>
      <point x="1173.472" y="646.064" type="curve" smooth="yes"/>
      <point x="1173.472" y="217.848"/>
      <point x="1036.424" y="46.792"/>
    </contour>
    <contour>
      <point x="870.248" y="-34.432" type="curve" smooth="yes"/>
      <point x="892.304" y="12.96" type="line"/>
      <point x="845.048" y="12.96" type="line"/>
      <point x="791.9359999999999" y="-62.007999999999996" type="line" smooth="yes"/>
      <point x="681.9599999999999" y="-210.952"/>
      <point x="654.648" y="-265.968"/>
      <point x="654.648" y="-325.928" type="curve" smooth="yes"/>
      <point x="654.648" y="-402.76000000000005"/>
      <point x="702.352" y="-465.0"/>
      <point x="814.0160000000001" y="-465.0" type="curve" smooth="yes"/>
      <point x="886.552" y="-465.0"/>
      <point x="941.624" y="-436.408"/>
      <point x="1043.288" y="-317.56" type="curve"/>
      <point x="1029.696" y="-295.728" type="line"/>
      <point x="970.568" y="-340.968"/>
      <point x="934.92" y="-345.376"/>
      <point x="904.512" y="-345.376" type="curve" smooth="yes"/>
      <point x="841.864" y="-345.376"/>
      <point x="801.4" y="-312.32"/>
      <point x="801.4" y="-257.152" type="curve" smooth="yes"/>
      <point x="801.4" y="-213.20799999999997"/>
      <point x="807.3439999999999" y="-164.50400000000002"/>
    </contour>
  </outline>
</glyph>
<glyph name="uni01EB" format="2">
  <advance width="1187.896"/>
  <unicode hex="01EB"/>
  <outline>
    <contour>
      <point x="594.5120000000001" y="40.2" type="curve" smooth="yes"/>
      <point x="461.53600000000006" y="40.2"/>
      <point x="418.56" y="208.20000000000002"/>
      <point x="418.56" y="538.92" type="curve" smooth="yes"/>
      <point x="418.56" y="851.144"/>
      <point x="466.128" y="983.152"/>
      <point x="592.736" y="983.152" type="curve" smooth="yes"/>
      <point x="725.712" y="983.152"/>
      <point x="768.688" y="815.8000000000001"/>
      <point x="768.688" y="485.08" type="curve" smooth="yes"/>
      <point x="768.688" y="172.208"/>
      <point x="721.12" y="40.2"/>
    </contour>
    <contour>
      <point x="582.144" y="-26.48" type="curve" smooth="yes"/>
      <point x="892.3760000000001" y="-26.48"/>
      <point x="1132.392" y="194.112"/>
      <point x="1132.392" y="515.5360000000001" type="curve" smooth="yes"/>
      <point x="1132.392" y="831.776"/>
      <point x="921.984" y="1050.48"/>
      <point x="605.1039999999999" y="1050.48" type="curve" smooth="yes"/>
      <point x="290.168" y="1050.48"/>
      <point x="55.504" y="828.8879999999999"/>
      <point x="55.504" y="508.464" type="curve" smooth="yes"/>
      <point x="55.504" y="192.576"/>
      <point x="271.264" y="-26.48"/>
    </contour>
    <contour>
      <point x="668.04" y="-34.376" type="curve" smooth="yes"/>
      <point x="738.1039999999999" y="62.856" type="line"/>
      <point x="703.344" y="62.856" type="line"/>
      <point x="582.432" y="-61.304" type="line" smooth="yes"/>
      <point x="449.536" y="-201.376"/>
      <point x="420.0" y="-262.8"/>
      <point x="420.0" y="-325.928" type="curve" smooth="yes"/>
      <point x="420.0" y="-402.76000000000005"/>
      <point x="465.944" y="-465.0"/>
      <point x="577.608" y="-465.0" type="curve" smooth="yes"/>
      <point x="650.144" y="-465.0"/>
      <point x="705.216" y="-436.408"/>
      <point x="806.88" y="-317.56" type="curve"/>
      <point x="793.288" y="-295.728" type="line"/>
      <point x="734.16" y="-340.968"/>
      <point x="698.5120000000001" y="-345.376"/>
      <point x="668.104" y="-345.376" type="curve" smooth="yes"/>
      <point x="605.456" y="-345.376"/>
      <point x="568.5120000000001" y="-312.32"/>
      <point x="568.5120000000001" y="-259.616" type="curve" smooth="yes"/>
      <point x="568.5120000000001" y="-213.20799999999997"/>
      <point x="580.9920000000001" y="-161.85600000000002"/>
    </contour>
  </outline>
</glyph>
<glyph name="uni0237" format="2">
  <advance width="617.4559999999999"/>
  <unicode hex="0237"/>
  <anchor x="304.224" y="1024.0" name="top"/>
  <anchor x="314.224" y="-438.52" name="bottom"/>
  <outline>
    <contour>
      <point x="150.136" y="779.536" type="curve"/>
      <point x="150.136" y="-63.815999999999995" type="line" smooth="yes"/>
      <point x="150.136" y="-229.31199999999998"/>
      <point x="140.952" y="-267.328"/>
      <point x="7.4239999999999995" y="-435.632" type="curve"/>
      <point x="27.128" y="-458.52" type="line"/>
      <point x="460.15999999999997" y="-154.616"/>
      <point x="498.728" y="-98.528"/>
      <point x="498.728" y="121.672" type="curve" smooth="yes"/>
      <point x="498.728" y="844.448" type="line"/>
      <point x="498.728" y="1054.352" type="line"/>
      <point x="479.824" y="1054.352" type="line"/>
      <point x="27.224000000000004" y="932.896" type="line"/>
      <point x="27.224000000000004" y="905.176" type="line"/>
      <point x="88.224" y="840.487510989011"/>
      <point x="128.136" y="802.8662747252747"/>
    </contour>
  </outline>
</glyph>
<glyph name="uni0259" format="2">
  <advance width="1052.208"/>
  <unicode hex="0259"/>
  <outline>
    <contour>
      <point x="468.4" y="-26.48" type="curve" smooth="yes"/>
      <point x="812.872" y="-26.48"/>
      <point x="995.3520000000001" y="233.64800000000002"/>
      <point x="995.3520000000001" y="532.592" type="curve" smooth="yes"/>
      <point x="995.3520000000001" y="860.168"/>
      <point x="793.76" y="1050.48"/>
      <point x="495.824" y="1050.48" type="curve" smooth="yes"/>
      <point x="310.2" y="1050.48"/>
      <point x="176.592" y="966.28"/>
      <point x="35.74400000000001" y="714.792" type="curve"/>
      <point x="60.168" y="694.072" type="line"/>
      <point x="150.49599999999998" y="788.9599999999999"/>
      <point x="235.224" y="821.9440000000001"/>
      <point x="343.28" y="821.9440000000001" type="curve" smooth="yes"/>
      <point x="556.008" y="821.9440000000001"/>
      <point x="666.68" y="701.144"/>
      <point x="666.68" y="392.064" type="curve" smooth="yes"/>
      <point x="666.68" y="127.048"/>
      <point x="607.912" y="42.608000000000004"/>
      <point x="502.28799999999995" y="42.608000000000004" type="curve" smooth="yes"/>
      <point x="416.632" y="42.608000000000004"/>
      <point x="375.664" y="118.576"/>
      <point x="363.088" y="363.384" type="curve"/>
      <point x="204.73600000000002" y="313.664" type="line"/>
      <point x="730.8159999999999" y="313.664" type="line"/>
      <point x="730.816" y="393.048" type="line"/>
      <point x="53.264" y="393.048" type="line"/>
      <point x="73.208" y="128.20000000000002"/>
      <point x="214.336" y="-26.48"/>
    </contour>
  </outline>
</glyph>
<glyph name="uni0308" format="2">
  <unicode hex="0308"/>
  <anchor x="0.0" y="1024.0" name="_top"/>
  <anchor x="0.0" y="1376.0" name="top"/>
  <outline>
    <contour>
      <point x="-201.352" y="1175.024" type="curve" smooth="yes"/>
      <point x="-124.096" y="1175.024"/>
      <point x="-72.08" y="1231.7440000000001"/>
      <point x="-72.08" y="1301.0" type="curve" smooth="yes"/>
      <point x="-72.08" y="1371.2559999999999"/>
      <point x="-124.096" y="1427.976"/>
      <point x="-201.352" y="1427.976" type="curve" smooth="yes"/>
      <point x="-277.96000000000004" y="1427.976"/>
      <point x="-330.624" y="1371.2559999999999"/>
      <point x="-330.624" y="1301.0" type="curve" smooth="yes"/>
      <point x="-330.624" y="1231.7440000000001"/>
      <point x="-277.96000000000004" y="1175.024"/>
    </contour>
    <contour>
      <point x="201.352" y="1175.024" type="curve" smooth="yes"/>
      <point x="278.608" y="1175.024"/>
      <point x="330.624" y="1231.7440000000001"/>
      <point x="330.624" y="1301.0" type="curve" smooth="yes"/>
      <point x="330.624" y="1371.2559999999999"/>
      <point x="278.608" y="1427.976"/>
      <point x="201.352" y="1427.976" type="curve" smooth="yes"/>
      <point x="124.744" y="1427.976"/>
      <point x="72.08" y="1371.2559999999999"/>
      <point x="72.08" y="1301.0" type="curve" smooth="yes"/>
      <point x="72.08" y="1231.7440000000001"/>
      <point x="124.744" y="1175.024"/>
    </contour>
  </outline>
</glyph>
<glyph name="uni030F" format="2">
  <unicode hex="030F"/>
  <anchor x="0.0" y="1024.0" name="_top"/>
  <anchor x="0.0" y="1464.0" name="top"/>
  <outline>
    <contour>
      <point x="-64.984" y="1138.0" type="line"/>
      <point x="-217.216" y="1464.0" type="line"/>
      <point x="-463.87199999999996" y="1464.0" type="line"/>
      <point x="-463.87199999999996" y="1454.704" type="line"/>
      <point x="-121.648" y="1138.0" type="line"/>
    </contour>
    <contour>
      <point x="187.792" y="1138.0" type="line"/>
      <point x="120.13600000000001" y="1464.0" type="line"/>
      <point x="-90.984" y="1464.0" type="line"/>
      <point x="-90.984" y="1454.704" type="line"/>
      <point x="138.48" y="1138.0" type="line"/>
    </contour>
  </outline>
</glyph>
<glyph name="dotbelowcomb" format="2">
  <unicode hex="0323"/>
  <anchor x="0.0" y="0.0" name="_bottom"/>
  <anchor x="0.0" y="-465.0" name="bottom"/>
  <outline>
    <contour>
      <point x="0.0" y="-351.216" type="curve" smooth="yes"/>
      <point x="82.2" y="-351.216"/>
      <point x="138.16" y="-292.848"/>
      <point x="138.16" y="-217.35199999999998" type="curve" smooth="yes"/>
      <point x="138.16" y="-142.15200000000002"/>
      <point x="82.2" y="-82.136"/>
      <point x="0.0" y="-82.136" type="curve" smooth="yes"/>
      <point x="-82.2" y="-82.136"/>
      <point x="-138.16" y="-142.15200000000002"/>
      <point x="-138.16" y="-217.35199999999998" type="curve" smooth="yes"/>
      <point x="-138.16" y="-292.848"/>
      <point x="-82.2" y="-351.216"/>
    </contour>
  </outline>
</glyph>
<glyph name="uni0331" format="2">
  <unicode hex="0331"/>
  <anchor x="0.0" y="0.0" name="_bottom"/>
  <anchor x="0.0" y="-465.0" name="bottom"/>
  <outline>
    <contour>
      <point x="-300.904" y="-264.72" type="line"/>
      <point x="300.904" y="-264.72" type="line"/>
      <point x="300.904" y="-170.28" type="line"/>
      <point x="-300.904" y="-170.28" type="line"/>
    </contour>
  </outline>
</glyph>
<glyph name="quoteleft" format="2">
  <advance width="508.59999999999997"/>
  <unicode hex="2018"/>
  <outline>
    <contour>
      <point x="454.85600000000005" y="1411.8719999999998" type="curve"/>
      <point x="434.20799999999997" y="1452.24" type="line"/>
      <point x="167.22400000000002" y="1350.168"/>
      <point x="61.855999999999995" y="1216.744"/>
      <point x="61.855999999999995" y="1058.1200000000001" type="curve" smooth="yes"/>
      <point x="61.855999999999995" y="926.792"/>
      <point x="139.05599999999998" y="855.4799999999999"/>
      <point x="248.68" y="855.4799999999999" type="curve" smooth="yes"/>
      <point x="353.192" y="855.4799999999999"/>
      <point x="426.28" y="930.864"/>
      <point x="426.28" y="1029.7839999999999" type="curve" smooth="yes"/>
      <point x="426.28" y="1049.728"/>
      <point x="256.824" y="1084.208"/>
      <point x="256.824" y="1198.648" type="curve" smooth="yes"/>
      <point x="256.824" y="1283.648"/>
      <point x="308.12" y="1349.76"/>
    </contour>
  </outline>
</glyph>
<glyph name="daggerdbl" format="2">
  <advance width="785.04"/>
  <unicode hex="2021"/>
  <outline>
    <contour>
      <point x="389.872" y="1220.072" type="line"/>
      <point x="112.52" y="1287.864" type="line"/>
      <point x="112.52" y="1099.56" type="line"/>
      <point x="389.872" y="1168.3519999999999" type="line"/>
      <point x="672.52" y="1099.56" type="line"/>
      <point x="672.52" y="1287.864" type="line"/>
    </contour>
    <contour>
      <point x="466.47999999999996" y="1046.0" type="line"/>
      <point x="415.408" y="1194.536" type="line"/>
      <point x="488.792" y="1464.0" type="line"/>
      <point x="290.952" y="1464.0" type="line"/>
      <point x="363.04" y="1194.536" type="line"/>
      <point x="313.616" y="1046.0" type="line"/>
      <point x="363.04" y="896.464" type="line"/>
      <point x="290.952" y="627.0" type="line"/>
      <point x="488.792" y="627.0" type="line"/>
      <point x="415.408" y="896.464" type="line"/>
    </contour>
    <contour>
      <point x="389.872" y="870.928" type="line"/>
      <point x="672.52" y="803.136" type="line"/>
      <point x="672.52" y="991.44" type="line"/>
      <point x="389.872" y="922.6479999999999" type="line"/>
      <point x="112.52" y="991.44" type="line"/>
      <point x="112.52" y="803.136" type="line"/>
    </contour>
  </outline>
</glyph>
<glyph name="guilsinglleft" format="2">
  <advance width="550.632"/>
  <unicode hex="2039"/>
  <outline>
    <contour>
      <point x="245.584" y="619.68" type="line"/>
      <point x="245.584" y="424.32" type="line"/>
      <point x="483.888" y="954.8480000000001" type="line"/>
      <point x="463.296" y="969.7919999999999" type="line"/>
      <point x="34.376000000000005" y="530.944" type="line"/>
      <point x="34.376000000000005" y="513.056" type="line"/>
      <point x="463.296" y="74.208" type="line"/>
      <point x="483.888" y="89.152" type="line"/>
    </contour>
  </outline>
</glyph>
<glyph name="fraction" format="2">
  <advance width="160.0"/>
  <unicode hex="2044"/>
  <outline>
    <contour>
      <point x="-459.072" y="0.0" type="line"/>
      <point x="-369.928" y="0.0" type="line"/>
      <point x="624.072" y="1430.0" type="line"/>
      <point x="534.928" y="1430.0" type="line"/>
    </contour>
  </outline>
</glyph>
<glyph name="uni2074" format="2">
  <advance width="790.024"/>
  <unicode hex="2074"/>
  <outline>
    <contour>
      <point x="349.168" y="1331.5759999999998" type="line"/>
      <point x="349.168" y="725.016" type="line"/>
      <point x="217.072" y="690.7760000000001" type="line"/>
      <point x="217.072" y="662.0" type="line"/>
      <point x="693.136" y="662.0" type="line"/>
      <point x="693.136" y="690.7760000000001" type="line"/>
      <point x="574.3919999999999" y="725.016" type="line"/>
      <point x="574.3919999999999" y="1431.76" type="line"/>
      <point x="410.704" y="1431.76" type="line"/>
      <point x="17.168" y="963.7919999999999" type="line"/>
      <point x="17.52" y="873.856" type="line"/>
      <point x="737.336" y="873.856" type="line"/>
      <point x="769.984" y="1032.3280000000002" type="line"/>
      <point x="662.376" y="1015.624" type="line"/>
      <point x="81.47999999999999" y="1015.624" type="line"/>
      <point x="75.352" y="952.128" type="line"/>
      <point x="417.2" y="1348.352" type="line"/>
    </contour>
  </outline>
</glyph>
<glyph name="peseta" format="2">
  <advance width="1329.6"/>
  <unicode hex="20A7"/>
  <outline>
    <contour>
      <point x="308.56" y="66.552" type="line"/>
      <point x="308.56" y="1430.0" type="line"/>
      <point x="-17.648" y="1430.0" type="line"/>
      <point x="-17.648" y="1401.928" type="line"/>
      <point x="72.744" y="1367.392" type="line"/>
      <point x="72.744" y="62.608000000000004" type="line"/>
      <point x="-17.648" y="28.072000000000003" type="line"/>
      <point x="-17.648" y="0.0" type="line"/>
      <point x="404.84000000000003" y="0.0" type="line"/>
      <point x="404.84000000000003" y="28.072000000000003" type="line"/>
    </contour>
    <contour>
      <point x="671.8960000000001" y="153.03199999999998" type="line" smooth="yes"/>
      <point x="671.8960000000001" y="13.632"/>
      <point x="726.024" y="-15.943999999999999"/>
      <point x="810.688" y="-15.943999999999999" type="curve" smooth="yes"/>
      <point x="855.224" y="-15.943999999999999"/>
      <point x="902.312" y="-4.4079999999999995"/>
      <point x="993.6800000000001" y="60.256" type="curve"/>
      <point x="993.6800000000001" y="100.624" type="line"/>
      <point x="967.4559999999999" y="91.328"/>
      <point x="945.808" y="87.624"/>
      <point x="922.992" y="87.624" type="curve" smooth="yes"/>
      <point x="897.232" y="87.624"/>
      <point x="883.992" y="103.272"/>
      <point x="883.992" y="153.624" type="curve" smooth="yes"/>
      <point x="883.992" y="1114.976" type="line"/>
      <point x="855.568" y="1114.976" type="line"/>
      <point x="816.2790187901925" y="990.3375175174152"/>
      <point x="700.4875630016921" y="900.2420096673333"/>
      <point x="631.968" y="869.872" type="curve"/>
      <point x="631.968" y="839.1519999999999" type="line"/>
      <point x="671.8960000000001" y="839.1519999999999" type="line"/>
    </contour>
    <contour>
      <point x="776.592" y="839.1519999999999" type="line"/>
      <point x="960.016" y="839.1519999999999" type="line"/>
      <point x="973.4399999999999" y="937.016" type="line"/>
      <point x="842.8000000000001" y="937.016" type="line"/>
    </contour>
    <contour>
      <point x="1223.104" y="966.0" type="curve" smooth="yes"/>
      <point x="1102.424" y="966.0"/>
      <point x="1012.8879999999999" y="880.336"/>
      <point x="1012.8879999999999" y="708.152" type="curve" smooth="yes"/>
      <point x="1012.8879999999999" y="377.656"/>
      <point x="1186.9279999999999" y="405.67199999999997"/>
      <point x="1186.9279999999999" y="163.264" type="curve" smooth="yes"/>
      <point x="1186.9279999999999" y="65.408"/>
      <point x="1152.464" y="41.903999999999996"/>
      <point x="1100.704" y="41.903999999999996" type="curve" smooth="yes"/>
      <point x="1092.184" y="41.903999999999996"/>
      <point x="1085.0159999999998" y="42.608000000000004"/>
      <point x="1077.552" y="45.072" type="curve"/>
      <point x="1130.584" y="11.128" type="line"/>
      <point x="1036.792" y="273.128" type="line"/>
      <point x="1012.4399999999999" y="273.128" type="line"/>
      <point x="1035.496" y="5.0" type="line"/>
      <point x="1068.4959999999999" y="-10.704"/>
      <point x="1103.752" y="-16.0"/>
      <point x="1139.808" y="-16.0" type="curve" smooth="yes"/>
      <point x="1264.896" y="-16.0"/>
      <point x="1356.488" y="65.76"/>
      <point x="1356.488" y="251.608" type="curve" smooth="yes"/>
      <point x="1356.488" y="593.456"/>
      <point x="1176.8" y="595.288"/>
      <point x="1176.8" y="797.44" type="curve" smooth="yes"/>
      <point x="1176.8" y="873.76"/>
      <point x="1204.136" y="905.152"/>
      <point x="1260.56" y="905.152" type="curve" smooth="yes"/>
      <point x="1270.856" y="905.152"/>
      <point x="1279.1519999999998" y="901.856"/>
      <point x="1287.152" y="896.912" type="curve"/>
      <point x="1224.384" y="944.48" type="line"/>
      <point x="1310.472" y="685.04" type="line"/>
      <point x="1331.472" y="685.04" type="line"/>
      <point x="1321.712" y="942.76" type="line"/>
      <point x="1293.12" y="957.056"/>
      <point x="1264.344" y="966.0"/>
    </contour>
    <contour>
      <point x="302.024" y="1361.968" type="line" smooth="yes"/>
      <point x="396.368" y="1361.968"/>
      <point x="415.81600000000003" y="1279.2800000000002"/>
      <point x="415.81600000000003" y="1049.944" type="curve" smooth="yes"/>
      <point x="415.81600000000003" y="776.688"/>
      <point x="386.88800000000003" y="698.592"/>
      <point x="303.32" y="698.592" type="curve" smooth="yes"/>
      <point x="266.632" y="698.592" type="line"/>
      <point x="260.4" y="629.5600000000001" type="line"/>
      <point x="335.8" y="629.5600000000001" type="line" smooth="yes"/>
      <point x="537.784" y="629.5600000000001"/>
      <point x="626.248" y="800.856"/>
      <point x="626.248" y="1038.464" type="curve" smooth="yes"/>
      <point x="626.248" y="1283.96"/>
      <point x="532.544" y="1430.0"/>
      <point x="341.04" y="1430.0" type="curve" smooth="yes"/>
      <point x="262.16" y="1430.0" type="line"/>
      <point x="266.632" y="1361.968" type="line"/>
    </contour>
  </outline>
</glyph>
<glyph name="minus" format="2">
  <advance width="1150.0"/>
  <unicode hex="2212"/>
  <outline>
    <contour>
      <point x="164.0" y="554.72" type="line"/>
      <point x="164.0" y="469.28000000000003" type="line"/>
      <point x="986.0" y="469.28000000000003" type="line"/>
      <point x="986.0" y="554.72" type="line"/>
    </contour>
  </outline>
</glyph>
<glyph name="lessequal" format="2">
  <advance width="1150.0"/>
  <unicode hex="2264"/>
  <outline>
    <contour>
      <point x="154.0" y="85.44" type="line"/>
      <point x="154.0" y="0.0" type="line"/>
      <point x="990.0" y="0.0" type="line"/>
      <point x="990.0" y="85.44" type="line"/>
    </contour>
    <contour>
      <point x="154.0" y="598.8720000000001" type="line"/>
      <point x="990.0" y="242.0" type="line"/>
      <point x="990.0" y="333.792" type="line"/>
      <point x="234.976" y="652.352" type="line"/>
      <point x="234.976" y="631.648" type="line"/>
      <point x="990.0" y="944.208" type="line"/>
      <point x="990.0" y="1036.0" type="line"/>
      <point x="154.0" y="679.1279999999999" type="line"/>
    </contour>
  </outline>
</glyph>
<glyph name="uni27E8" format="2">
  <advance width="1150.0"/>
  <unicode hex="27E8"/>
  <outline>
    <contour>
      <point x="314.01599999999996" y="692.0" type="line"/>
      <point x="908.016" y="1430.0" type="line"/>
      <point x="804.9839999999999" y="1430.0" type="line"/>
      <point x="230.984" y="720.0" type="line"/>
      <point x="230.984" y="708.0" type="line"/>
      <point x="804.9839999999999" y="0.0" type="line"/>
      <point x="908.016" y="0.0" type="line"/>
      <point x="312.01599999999996" y="740.0" type="line"/>
    </contour>
  </outline>
</glyph>
<glyph name="Euro.lf" format="2">
  <advance width="1495.984"/>
  <outline>
    <contour>
      <point x="1077.656" y="596.424" type="line"/>
      <point x="86.63199999999999" y="596.424" type="line"/>
      <point x="86.63199999999999" y="527.8720000000001" type="line"/>
      <point x="1077.656" y="527.8720000000001" type="line"/>
    </contour>
    <contour>
      <point x="1077.656" y="914.424" type="line"/>
      <point x="86.63199999999999" y="914.424" type="line"/>
      <point x="86.63199999999999" y="844.872" type="line"/>
      <point x="1077.656" y="844.872" type="line"/>
    </contour>
    <contour>
      <point x="949.3679999999999" y="1384.9679999999998" type="curve" smooth="yes"/>
      <point x="1099.688" y="1384.9679999999998"/>
      <point x="1242.136" y="1133.608"/>
      <point x="1293.7839999999999" y="1133.608" type="curve" smooth="yes"/>
      <point x="1366.912" y="1133.608"/>
      <point x="1415.464" y="1184.752"/>
      <point x="1415.464" y="1255.08" type="curve" smooth="yes"/>
      <point x="1415.464" y="1379.04"/>
      <point x="1273.048" y="1456.48"/>
      <point x="1007.544" y="1456.48" type="curve" smooth="yes"/>
      <point x="529.0799999999999" y="1456.48"/>
      <point x="273.248" y="1118.024"/>
      <point x="273.248" y="686.8" type="curve" smooth="yes"/>
      <point x="273.248" y="231.576"/>
      <point x="511.912" y="-26.48"/>
      <point x="962.104" y="-26.48" type="curve" smooth="yes"/>
      <point x="1260.488" y="-26.48"/>
      <point x="1391.224" y="57.384"/>
      <point x="1391.224" y="160.49599999999998" type="curve" smooth="yes"/>
      <point x="1391.224" y="224.936"/>
      <point x="1345.616" y="262.12"/>
      <point x="1283.912" y="262.12" type="curve" smooth="yes"/>
      <point x="1219.008" y="262.12"/>
      <point x="1082.8319999999999" y="42.720000000000006"/>
      <point x="952.12" y="42.36800000000001" type="curve" smooth="yes"/>
      <point x="798.6400000000001" y="42.016000000000005"/>
      <point x="652.7280000000001" y="200.768"/>
      <point x="652.7280000000001" y="791.16" type="curve" smooth="yes"/>
      <point x="652.7280000000001" y="1218.384"/>
      <point x="758.928" y="1384.9679999999998"/>
    </contour>
  </outline>
</glyph>
<glyph name="caroncomb.alt" format="2">
  <anchor x="0.0" y="1464.0" name="_right"/>
  <outline>
    <contour>
      <point x="96.06400000000001" y="1079.0" type="line"/>
      <point x="138.08" y="1079.0" type="line"/>
      <point x="370.12800000000004" y="1454.0" type="line"/>
      <point x="370.12800000000004" y="1464.0" type="line"/>
      <point x="141.048" y="1464.0" type="line"/>
    </contour>
  </outline>
</glyph>
<glyph name="colonmonetary.lf" format="2">
  <advance width="1241.744"/>
  <outline>
    <contour>
      <point x="375.376" y="-208.0" type="line"/>
      <point x="443.336" y="-208.0" type="line"/>
      <point x="853.336" y="1638.0" type="line"/>
      <point x="785.376" y="1638.0" type="line"/>
    </contour>
    <contour>
      <point x="561.136" y="-208.0" type="line"/>
      <point x="630.096" y="-208.0" type="line"/>
      <point x="1039.096" y="1638.0" type="line"/>
      <point x="971.1360000000001" y="1638.0" type="line"/>
    </contour>
    <contour>
      <point x="707.176" y="1383.912" type="curve" smooth="yes"/>
      <point x="867.072" y="1383.912"/>
      <point x="980.9680000000001" y="1153.584"/>
      <point x="1025.488" y="1153.584" type="curve" smooth="yes"/>
      <point x="1104.3919999999998" y="1153.584"/>
      <point x="1152.76" y="1200.712"/>
      <point x="1152.76" y="1271.8" type="curve" smooth="yes"/>
      <point x="1152.76" y="1372.0"/>
      <point x="1036.056" y="1456.48"/>
      <point x="777.5600000000001" y="1456.48" type="curve" smooth="yes"/>
      <point x="390.896" y="1456.48"/>
      <point x="101.632" y="1127.8319999999999"/>
      <point x="101.632" y="680.96" type="curve" smooth="yes"/>
      <point x="101.632" y="234.2396989869754"/>
      <point x="328.224" y="-26.48"/>
      <point x="664.344" y="-26.48" type="curve" smooth="yes"/>
      <point x="872.32" y="-26.48"/>
      <point x="1020.3765571284199" y="59.35720381177142"/>
      <point x="1181.464" y="366.736" type="curve"/>
      <point x="1151.096" y="389.568" type="line"/>
      <point x="1037.6570358672752" y="296.21703586727506"/>
      <point x="952.448" y="263.528"/>
      <point x="803.2560000000001" y="263.528" type="curve" smooth="yes"/>
      <point x="568.088" y="263.528"/>
      <point x="421.488" y="427.5988349514563"/>
      <point x="421.488" y="852.608" type="curve" smooth="yes"/>
      <point x="421.488" y="1247.856"/>
      <point x="539.216" y="1383.912"/>
    </contour>
  </outline>
</glyph>
<glyph name="dollar.lf" format="2">
  <advance width="1193.184"/>
  <outline>
    <contour>
      <point x="484.62399999999997" y="-208.0" type="line"/>
      <point x="550.5840000000001" y="-208.0" type="line"/>
      <point x="550.5840000000001" y="1638.0" type="line"/>
      <point x="484.62399999999997" y="1638.0" type="line"/>
    </contour>
    <contour>
      <point x="672.624" y="-208.0" type="line"/>
      <point x="738.584" y="-208.0" type="line"/>
      <point x="738.584" y="1638.0" type="line"/>
      <point x="672.624" y="1638.0" type="line"/>
    </contour>
    <contour>
      <point x="492.568" y="-26.48" type="curve" smooth="yes"/>
      <point x="869.9440000000001" y="-26.48"/>
      <point x="1104.184" y="172.08984615384614"/>
      <point x="1104.184" y="478.00800000000004" type="curve" smooth="yes"/>
      <point x="1104.184" y="685.64"/>
      <point x="990.592" y="830.9680000000001"/>
      <point x="667.28" y="914.024" type="curve" smooth="yes"/>
      <point x="379.608" y="988.008"/>
      <point x="326.48" y="1060.768"/>
      <point x="326.48" y="1171.992" type="curve" smooth="yes"/>
      <point x="326.48" y="1302.9070588235295"/>
      <point x="413.096" y="1389.152"/>
      <point x="599.768" y="1389.152" type="curve" smooth="yes"/>
      <point x="758.608" y="1389.152"/>
      <point x="889.264" y="1154.6399999999999"/>
      <point x="932.024" y="1154.6399999999999" type="curve" smooth="yes"/>
      <point x="1009.52" y="1154.6399999999999"/>
      <point x="1056.8319999999999" y="1202.12"/>
      <point x="1056.8319999999999" y="1274.264" type="curve" smooth="yes"/>
      <point x="1056.8319999999999" y="1375.168"/>
      <point x="940.48" y="1456.48"/>
      <point x="668.392" y="1456.48" type="curve" smooth="yes"/>
      <point x="318.976" y="1456.48"/>
      <point x="103.29599999999999" y="1249.728"/>
      <point x="103.29599999999999" y="993.2" type="curve" smooth="yes"/>
      <point x="103.29599999999999" y="781.24"/>
      <point x="207.408" y="649.0400000000001"/>
      <point x="511.944" y="571.984" type="curve" smooth="yes"/>
      <point x="810.648" y="496.22400000000005"/>
      <point x="879.3520000000001" y="427.256"/>
      <point x="879.3520000000001" y="295.048" type="curve" smooth="yes"/>
      <point x="879.3520000000001" y="133.28837151702785"/>
      <point x="755.528" y="40.496"/>
      <point x="571.1519999999999" y="40.496" type="curve" smooth="yes"/>
      <point x="374.81600000000003" y="40.496"/>
      <point x="255.16" y="289.43199999999996"/>
      <point x="211.288" y="289.43199999999996" type="curve" smooth="yes"/>
      <point x="134.73600000000002" y="289.43199999999996"/>
      <point x="86.128" y="234.176"/>
      <point x="86.128" y="161.38400000000001" type="curve" smooth="yes"/>
      <point x="86.128" y="46.48103067484662"/>
      <point x="223.008" y="-26.48"/>
    </contour>
  </outline>
</glyph>
<glyph name="dong.lf" format="2">
  <advance width="1408.424"/>
  <outline>
    <contour>
      <point x="1309.5520000000001" y="-272.57599999999996" type="line"/>
      <point x="111.736" y="-272.57599999999996" type="line"/>
      <point x="111.736" y="-341.12800000000004" type="line"/>
      <point x="1309.5520000000001" y="-341.12800000000004" type="line"/>
    </contour>
    <contour>
      <point x="803.808" y="814.416" type="curve" smooth="yes"/>
      <point x="803.808" y="137.976" type="line"/>
      <point x="822.6" y="-37.016000000000005" type="line"/>
      <point x="843.152" y="-37.016000000000005" type="line"/>
      <point x="1298.44" y="43.512" type="line"/>
      <point x="1298.44" y="71.344" type="line"/>
      <point x="1258.4399999999998" y="94.54005447717297"/>
      <point x="1175.4" y="141.44626867562553"/>
      <point x="1152.4" y="154.784" type="curve"/>
      <point x="1152.4" y="1294.6560000000002" type="line"/>
      <point x="1157.328" y="1490.48" type="line"/>
      <point x="1138.7759999999998" y="1490.48" type="line"/>
      <point x="641.456" y="1381.08" type="line"/>
      <point x="641.456" y="1353.3600000000001" type="line"/>
      <point x="696.456" y="1308.2707975460123"/>
      <point x="780.8080000000001" y="1239.2474846625767"/>
      <point x="803.808" y="1220.392" type="curve"/>
      <point x="803.808" y="961.568" type="line"/>
      <point x="1045.376" y="971.424" type="line"/>
      <point x="934.12" y="1026.776"/>
      <point x="808.0640000000001" y="1050.48"/>
      <point x="681.344" y="1050.48" type="curve" smooth="yes"/>
      <point x="339.60799999999995" y="1050.48"/>
      <point x="89.336" y="839.3679999999999"/>
      <point x="89.336" y="462.64799999999997" type="curve" smooth="yes"/>
      <point x="89.336" y="169.11200000000002"/>
      <point x="253.39200000000002" y="-26.48"/>
      <point x="512.8000000000001" y="-26.48" type="curve" smooth="yes"/>
      <point x="629.928" y="-26.48"/>
      <point x="709.4" y="12.671999999999997"/>
      <point x="862.144" y="203.96800000000002" type="curve"/>
      <point x="856.864" y="233.04" type="line"/>
      <point x="807.3919999999999" y="180.808"/>
      <point x="745.4399999999999" y="158.472"/>
      <point x="673.912" y="158.472" type="curve" smooth="yes"/>
      <point x="520.5840000000001" y="158.472"/>
      <point x="449.92800000000005" y="261.832"/>
      <point x="449.92800000000005" y="556.256" type="curve" smooth="yes"/>
      <point x="449.92800000000005" y="870.64"/>
      <point x="526.288" y="986.2800000000001"/>
      <point x="651.6560000000001" y="986.2800000000001" type="curve" smooth="yes"/>
      <point x="746.0" y="986.2800000000001"/>
      <point x="803.808" y="920.792"/>
    </contour>
    <contour>
      <point x="515.312" y="1120.192" type="line"/>
      <point x="1325.664" y="1120.192" type="line"/>
      <point x="1325.664" y="1195.856" type="line"/>
      <point x="515.312" y="1195.856" type="line"/>
    </contour>
  </outline>
</glyph>
<glyph name="florin.lf" format="2">
  <advance width="1629.04"/>
  <outline>
    <contour>
      <point x="355.00800000000004" y="687.984" type="line"/>
      <point x="1272.096" y="687.984" type="line"/>
      <point x="1274.2079999999999" y="757.536" type="line"/>
      <point x="357.12" y="757.536" type="line"/>
    </contour>
    <contour>
      <point x="279.696" y="-243.072" type="curve" smooth="yes"/>
      <point x="536.8960000000001" y="-243.072"/>
      <point x="846.3199999999999" y="-66.224"/>
      <point x="946.048" y="501.44" type="curve" smooth="yes"/>
      <point x="1049.888" y="1091.792" type="line" smooth="yes"/>
      <point x="1090.984" y="1323.0"/>
      <point x="1159.64" y="1395.152"/>
      <point x="1264.2720000000002" y="1395.152" type="curve" smooth="yes"/>
      <point x="1365.72" y="1395.152"/>
      <point x="1445.248" y="1209.1039999999998"/>
      <point x="1473.3600000000001" y="1209.1039999999998" type="curve" smooth="yes"/>
      <point x="1541.024" y="1209.1039999999998"/>
      <point x="1588.28" y="1250.1760000000002"/>
      <point x="1588.28" y="1310.376" type="curve" smooth="yes"/>
      <point x="1588.28" y="1396.888"/>
      <point x="1510.912" y="1456.48"/>
      <point x="1322.472" y="1456.48" type="curve" smooth="yes"/>
      <point x="985.1600000000001" y="1456.48"/>
      <point x="747.424" y="1245.624"/>
      <point x="691.048" y="939.608" type="curve" smooth="yes"/>
      <point x="550.7679999999999" y="154.832" type="line" smooth="yes"/>
      <point x="499.336" y="-120.98400000000001"/>
      <point x="413.568" y="-176.096"/>
      <point x="346.472" y="-176.096" type="curve" smooth="yes"/>
      <point x="238.06400000000002" y="-176.096"/>
      <point x="187.456" y="7.896000000000004"/>
      <point x="163.4" y="7.896000000000004" type="curve" smooth="yes"/>
      <point x="110.144" y="7.896000000000004"/>
      <point x="44.704" y="-25.583999999999996"/>
      <point x="44.704" y="-108.85600000000001" type="curve" smooth="yes"/>
      <point x="44.704" y="-193.464"/>
      <point x="123.704" y="-243.072"/>
    </contour>
  </outline>
</glyph>
<glyph name="four.lf" format="2">
  <advance width="1342.8960000000002"/>
  <outline>
    <contour>
      <point x="1008.168" y="1437.04" type="line"/>
      <point x="728.9680000000001" y="1437.04" type="line"/>
      <point x="15.128" y="526.7040000000001" type="line"/>
      <point x="15.128" y="383.176" type="line"/>
      <point x="1258.192" y="383.176" type="line"/>
      <point x="1319.192" y="672.728" type="line"/>
      <point x="1103.5439999999999" y="642.728" type="line"/>
      <point x="149.128" y="642.728" type="line"/>
      <point x="116.75999999999999" y="550.4399999999999" type="line"/>
      <point x="720.664" y="1300.592" type="line"/>
      <point x="616.472" y="1237.9199999999998" type="line"/>
      <point x="616.472" y="83.424" type="line"/>
      <point x="396.64" y="33.832" type="line"/>
      <point x="396.64" y="0.0" type="line"/>
      <point x="1219.096" y="0.0" type="line"/>
      <point x="1219.096" y="33.832" type="line"/>
      <point x="1008.168" y="83.424" type="line"/>
    </contour>
  </outline>
</glyph>
<glyph name="hookabovecomb.case" format="2">
  <anchor x="0.0" y="1430.0" name="_UCtop"/>
  <anchor x="0.0" y="1870.0" name="UCtop"/>
  <outline>
    <contour>
      <point x="-177.42399999999998" y="1746.304" type="line"/>
      <point x="29.855999999999998" y="1739.6"/>
      <point x="70.83999999999999" y="1721.672"/>
      <point x="70.83999999999999" y="1676.8" type="curve" smooth="yes"/>
      <point x="70.83999999999999" y="1631.112"/>
      <point x="20.264000000000003" y="1600.944"/>
      <point x="-95.256" y="1567.8319999999999" type="curve"/>
      <point x="-83.256" y="1526.464" type="line"/>
      <point x="145.72" y="1576.52"/>
      <point x="208.424" y="1640.76"/>
      <point x="208.424" y="1729.648" type="curve" smooth="yes"/>
      <point x="208.424" y="1825.24"/>
      <point x="148.72" y="1893.8319999999999"/>
      <point x="-153.88799999999998" y="1907.184" type="curve"/>
    </contour>
  </outline>
</glyph>
<glyph name="nine.lf" format="2">
  <advance width="1290.52"/>
  <outline>
    <contour>
      <point x="250.90399999999997" y="-55.832" type="line"/>
      <point x="980.208" y="184.71200000000002"/>
      <point x="1215.72" y="482.968"/>
      <point x="1215.72" y="873.296" type="curve" smooth="yes"/>
      <point x="1215.72" y="1200.1746735751294"/>
      <point x="1025.0" y="1456.48"/>
      <point x="635.144" y="1456.48" type="curve" smooth="yes"/>
      <point x="273.344" y="1456.48"/>
      <point x="39.44799999999999" y="1260.7428571428572"/>
      <point x="39.44799999999999" y="980.968" type="curve" smooth="yes"/>
      <point x="39.44799999999999" y="737.064"/>
      <point x="203.672" y="578.496"/>
      <point x="431.98400000000004" y="578.496" type="curve" smooth="yes"/>
      <point x="547.6175483870967" y="578.496"/>
      <point x="599.784" y="604.944"/>
      <point x="863.864" y="773.912" type="curve"/>
      <point x="852.248" y="806.056" type="line"/>
      <point x="785.5059133538728" y="775.925303059965"/>
      <point x="707.264" y="755.688"/>
      <point x="639.496" y="755.688" type="curve" smooth="yes"/>
      <point x="511.192" y="755.688"/>
      <point x="433.03200000000004" y="834.3760000000001"/>
      <point x="433.03200000000004" y="1079.816" type="curve" smooth="yes"/>
      <point x="433.03200000000004" y="1283.6197"/>
      <point x="502.22400000000005" y="1388.448"/>
      <point x="614.96" y="1388.448" type="curve" smooth="yes"/>
      <point x="746.832" y="1388.448"/>
      <point x="818.08" y="1235.4872202166066"/>
      <point x="818.08" y="904.136" type="curve" smooth="yes"/>
      <point x="818.08" y="376.64481849710984"/>
      <point x="697.8811724117832" y="203.8911426277473"/>
      <point x="219.01600000000002" y="-17.0" type="curve"/>
    </contour>
  </outline>
</glyph>
<glyph name="uni0302_tildecomb" format="2">
  <anchor x="0.0" y="1024.0" name="_top"/>
  <outline>
    <contour>
      <point x="76.62400000000001" y="1263.6319999999998" type="line"/>
      <point x="-78.624" y="1263.6319999999998" type="line"/>
      <point x="246.24" y="1097.0" type="line"/>
      <point x="310.088" y="1097.0" type="line"/>
      <point x="90.272" y="1342.0" type="line"/>
      <point x="-90.272" y="1342.0" type="line"/>
      <point x="-310.088" y="1097.0" type="line"/>
      <point x="-246.24" y="1097.0" type="line"/>
    </contour>
    <contour>
      <point x="-250.832" y="1390.0" type="line"/>
      <point x="-217.832" y="1449.728"/>
      <point x="-182.888" y="1475.728"/>
      <point x="-131.352" y="1475.728" type="curve" smooth="yes"/>
      <point x="-60.29600000000001" y="1475.728"/>
      <point x="17.351999999999997" y="1383.352"/>
      <point x="108.76" y="1383.352" type="curve" smooth="yes"/>
      <point x="182.536" y="1383.352"/>
      <point x="238.31199999999998" y="1426.8319999999999"/>
      <point x="299.49600000000004" y="1598.0" type="curve"/>
      <point x="250.832" y="1598.0" type="line"/>
      <point x="217.832" y="1538.272"/>
      <point x="182.888" y="1512.272"/>
      <point x="131.352" y="1512.272" type="curve" smooth="yes"/>
      <point x="60.29600000000001" y="1512.272"/>
      <point x="-17.351999999999997" y="1604.6480000000001"/>
      <point x="-108.76" y="1604.6480000000001" type="curve" smooth="yes"/>
      <point x="-182.536" y="1604.6480000000001"/>
      <point x="-238.31199999999998" y="1561.1680000000001"/>
      <point x="-299.49600000000004" y="1390.0" type="curve"/>
    </contour>
  </outline>
</glyph>
<glyph name="uni0306_gravecomb.case" format="2">
  <anchor x="0.0" y="1430.0" name="_UCtop"/>
  <outline>
    <contour>
      <point x="22.536" y="1721.0" type="line"/>
      <point x="-90.008" y="2004.0" type="line"/>
      <point x="-338.91999999999996" y="2004.0" type="line"/>
      <point x="-338.91999999999996" y="1990.704" type="line"/>
      <point x="-21.536" y="1721.0" type="line"/>
    </contour>
    <contour>
      <point x="0.0" y="1636.9759999999999" type="curve" smooth="yes"/>
      <point x="-136.424" y="1636.9759999999999"/>
      <point x="-204.944" y="1668.7359999999999"/>
      <point x="-240.352" y="1752.0" type="curve"/>
      <point x="-288.368" y="1752.0" type="line"/>
      <point x="-222.776" y="1548.352"/>
      <point x="-153.128" y="1503.0"/>
      <point x="0.0" y="1503.0" type="curve" smooth="yes"/>
      <point x="153.128" y="1503.0"/>
      <point x="222.776" y="1548.352"/>
      <point x="288.368" y="1752.0" type="curve"/>
      <point x="240.352" y="1752.0" type="line"/>
      <point x="204.944" y="1670.384"/>
      <point x="136.424" y="1636.9759999999999"/>
    </contour>
  </outline>
</glyph>
<glyph name="uni030F.case" format="2">
  <anchor x="0.0" y="1430.0" name="_UCtop"/>
  <anchor x="0.0" y="1870.0" name="UCtop"/>
  <outline>
    <contour>
      <point x="-62.872" y="1544.0" type="line"/>
      <point x="-215.45600000000002" y="1870.0" type="line"/>
      <point x="-462.11199999999997" y="1870.0" type="line"/>
      <point x="-462.11199999999997" y="1860.704" type="line"/>
      <point x="-119.536" y="1544.0" type="line"/>
    </contour>
    <contour>
      <point x="189.90400000000002" y="1544.0" type="line"/>
      <point x="122.24799999999999" y="1870.0" type="line"/>
      <point x="-88.872" y="1870.0" type="line"/>
      <point x="-88.872" y="1860.704" type="line"/>
      <point x="140.24" y="1544.0" type="line"/>
    </contour>
  </outline>
</glyph>
<glyph name="uni20A6.lf" format="2">
  <advance width="1389.52"/>
  <outline>
    <contour>
      <point x="1306.2959999999998" y="596.424" type="line"/>
      <point x="86.80000000000001" y="596.424" type="line"/>
      <point x="86.80000000000001" y="527.872" type="line"/>
      <point x="1306.2959999999998" y="527.872" type="line"/>
    </contour>
    <contour>
      <point x="1306.2959999999998" y="914.424" type="line"/>
      <point x="86.80000000000001" y="914.424" type="line"/>
      <point x="86.80000000000001" y="844.8720000000001" type="line"/>
      <point x="1306.2959999999998" y="844.8720000000001" type="line"/>
    </contour>
    <contour>
      <point x="1131.1599999999999" y="430.42400000000004" type="line"/>
      <point x="637.8399999999999" y="1430.0" type="line"/>
      <point x="106.80000000000001" y="1430.0" type="line"/>
      <point x="106.80000000000001" y="1399.76" type="line"/>
      <point x="268.35999999999996" y="1348.8" type="line"/>
      <point x="268.35999999999996" y="62.831999999999994" type="line"/>
      <point x="123.392" y="30.240000000000002" type="line"/>
      <point x="123.392" y="0.0" type="line"/>
      <point x="486.52799999999996" y="0.0" type="line"/>
      <point x="486.52799999999996" y="30.240000000000002" type="line"/>
      <point x="336.32" y="62.831999999999994" type="line"/>
      <point x="336.32" y="1373.2240000000002" type="line"/>
      <point x="314.20799999999997" y="1356.856" type="line"/>
      <point x="985.432" y="-4.927999999999999" type="line"/>
      <point x="1155.3999999999999" y="-4.927999999999999" type="line"/>
      <point x="1155.3999999999999" y="1367.168" type="line"/>
      <point x="1300.368" y="1399.76" type="line"/>
      <point x="1300.368" y="1430.0" type="line"/>
      <point x="937.232" y="1430.0" type="line"/>
      <point x="937.232" y="1399.76" type="line"/>
      <point x="1087.44" y="1367.168" type="line"/>
      <point x="1087.44" y="430.424" type="line"/>
    </contour>
  </outline>
</glyph>
<glyph name="uni20BC.lf" format="2">
  <advance width="1294.68"/>
  <outline>
    <contour>
      <point x="647.84" y="1097.28" type="curve" smooth="yes"/>
      <point x="828.5279999999999" y="1097.28"/>
      <point x="851.096" y="824.536"/>
      <point x="880.744" y="0.0" type="curve"/>
      <point x="1219.992" y="0.0" type="line"/>
      <point x="1114.8983146629846" y="861.0984586417834"/>
      <point x="899.2647710843373" y="1153.536"/>
      <point x="647.84" y="1153.536" type="curve" smooth="yes"/>
      <point x="396.126297188755" y="1153.536"/>
      <point x="179.7814882444211" y="861.0971038764768"/>
      <point x="75.04" y="0.0" type="curve"/>
      <point x="414.288" y="0.0" type="line"/>
      <point x="443.93600000000004" y="824.536"/>
      <point x="466.50399999999996" y="1097.28"/>
    </contour>
    <contour>
      <point x="614.36" y="0.0" type="line"/>
      <point x="680.32" y="0.0" type="line"/>
      <point x="680.32" y="1430.0" type="line"/>
      <point x="614.36" y="1430.0" type="line"/>
    </contour>
  </outline>
</glyph>
<glyph name="zero.lf" format="2">
  <advance width="1422.552"/>
  <outline>
    <contour>
      <point x="721.432" y="43.496" type="curve" smooth="yes"/>
      <point x="570.6" y="43.496"/>
      <point x="465.648" y="239.21599999999998"/>
      <point x="465.648" y="759.96" type="curve" smooth="yes"/>
      <point x="465.648" y="1167.128"/>
      <point x="547.808" y="1386.504"/>
      <point x="699.1759999999999" y="1386.504" type="curve" smooth="yes"/>
      <point x="853.248" y="1386.504"/>
      <point x="960.1440000000001" y="1190.784"/>
      <point x="960.1440000000001" y="670.04" type="curve" smooth="yes"/>
      <point x="960.1440000000001" y="262.872"/>
      <point x="876.688" y="43.496"/>
    </contour>
    <contour>
      <point x="713.304" y="1456.48" type="curve" smooth="yes"/>
      <point x="340.71999999999997" y="1456.48"/>
      <point x="83.504" y="1156.1840000000002"/>
      <point x="83.504" y="714.944" type="curve" smooth="yes"/>
      <point x="83.504" y="273.056"/>
      <point x="336.664" y="-26.48"/>
      <point x="707.304" y="-26.48" type="curve" smooth="yes"/>
      <point x="1083.128" y="-26.48"/>
      <point x="1339.048" y="273.81600000000003"/>
      <point x="1339.048" y="715.056" type="curve" smooth="yes"/>
      <point x="1339.048" y="1156.944"/>
      <point x="1087.184" y="1456.48"/>
    </contour>
  </outline>
</glyph>
